<svg xmlns="http://www.w3.org/2000/svg" width="24" height="24">
  <path d="M18.896 2a2.855 2.855 0 0 1 2.854 2.857v14.286A2.855 2.855 0 0 1 18.896 22H6.53a2.855 2.855 0 0 1-2.853-2.857v-.953H2.44a.19.19 0 0 1-.19-.19v-1.048a.19.19 0 0 1 .19-.19h1.237v-4.286H2.44a.19.19 0 0 1-.19-.19v-1.048a.19.19 0 0 1 .19-.19h1.237V6.762H2.44a.19.19 0 0 1-.19-.19V5.523a.19.19 0 0 1 .19-.19h1.237v-.477A2.855 2.855 0 0 1 6.53 2h12.366Zm-6.269 3.5h-.254l-.106.002a2.675 2.675 0 0 0-2.572 2.67v1.5l.004.133c.033.703.333 1.368.838 1.859l.672.653.043.048c.082.1.126.224.126.354v.09l-.004.067a.535.535 0 0 1-.288.41l-4.225 2.157-.073.04a1.12 1.12 0 0 0-.538.957v.187l.003.072a.874.874 0 0 0 .871.801h10.752c.482 0 .874-.39.874-.872v-.187a1.12 1.12 0 0 0-.611-.998l-4.225-2.157a.535.535 0 0 1-.292-.477v-.09c0-.152.061-.296.17-.402l.671-.653a2.777 2.777 0 0 0 .841-1.991v-1.5A2.675 2.675 0 0 0 12.627 5.5Z"/>
</svg>
