<svg xmlns="http://www.w3.org/2000/svg" width="24" height="24">
  <path d="M22.379 15.658c-.658-.148-2.736-.72-4.923-1.457-.683-.228-1.599-.58-2.62-.95A13.839 13.839 0 0 0 16.26 9.64h-3.364V8.423h4.12v-.677h-4.12V5.715h-1.682c-.294 0-.294.292-.294.292v1.736H6.75v.678h4.167v1.215h-3.44v.68h6.674a11.946 11.946 0 0 1-.963 2.358c-2.165-.717-4.476-1.299-5.927-.94-.928.23-1.527.638-1.878 1.068-1.613 1.97-.457 4.96 2.949 4.96 2.013 0 3.953-1.127 5.455-2.984 2.065.997 6.696 2.945 7.416 3.247A10.989 10.989 0 0 1 11.998 23C5.925 23.003 1 18.076 1 12.001S5.925 1 12 1s11 4.926 11 11.001a10.99 10.99 0 0 1-.621 3.657ZM7.9 16.146c-2.571 0-3.333-2.008-2.063-3.105.425-.37 1.201-.552 1.614-.594 1.527-.15 2.942.427 4.612 1.235-1.171 1.516-2.667 2.464-4.163 2.464Z"/>
</svg>
