<svg xmlns="http://www.w3.org/2000/svg" width="24" height="24">
  <path d="M18.797 2A3.203 3.203 0 0 1 22 5.204v13.593A3.203 3.203 0 0 1 18.797 22H5.204A3.203 3.203 0 0 1 2 18.797V5.204A3.203 3.203 0 0 1 5.204 2h13.593Zm-5.664 2.667h-1.969c-.342 0-.345.333-.345.34v2.016h-4.88v.789h4.88v1.413H6.79v.789h7.813c-.286.981-.67 1.903-1.125 2.74-2.535-.834-5.24-1.51-6.94-1.093-1.086.267-1.787.743-2.198 1.242-1.887 2.288-.534 5.764 3.452 5.764 2.357 0 4.628-1.31 6.388-3.468 2.624 1.258 7.82 3.416 7.82 3.416V15.54c-.027-.002-.71-.071-3.53-1.012-.799-.266-1.872-.675-3.066-1.105a16.028 16.028 0 0 0 1.667-4.197h-3.938V7.812h4.824v-.79h-4.824V4.668Zm-.8 9.688c-1.403 1.833-3.19 2.978-4.979 2.978-3.076 0-3.986-2.427-2.466-3.754.508-.449 1.435-.668 1.93-.717 1.827-.18 3.518.517 5.515 1.493Z"/>
</svg>
