<svg xmlns="http://www.w3.org/2000/svg" width="24" height="24">
  <path d="M17.527 2.166a.757.757 0 0 1 1.003.051l.052.056c.24.291.223.72-.052.992l-1.28 1.264v1.01c.928.73 1.632 1.37 2.11 1.923a8.69 8.69 0 0 1 2.14 5.712c0 4.875-4.03 8.826-9 8.826-1.695 0-3.28-.46-4.635-1.259a3.986 3.986 0 0 0 1.044-1.118 7.586 7.586 0 0 0 3.591.895c4.145 0 7.5-3.29 7.5-7.344 0-1.7-.59-3.307-1.654-4.601l-.125-.148-.072-.081c-.833-.929-2.45-2.203-4.823-3.786l-.232-.154-.594-.39-.116.076C9.547 5.939 7.666 7.402 6.78 8.424a7.218 7.218 0 0 0-1.766 5.21 4.001 4.001 0 0 0-1.464.472A8.69 8.69 0 0 1 5.64 7.46c.48-.552 1.182-1.193 2.11-1.923v-1.01L6.47 3.266a.734.734 0 0 1-.052-.992l.052-.056a.757.757 0 0 1 1.003-.05l.057.05 1.72 1.698v.505c.674-.48 1.425-.99 2.254-1.532l.253-.164.743-.477a74.663 74.663 0 0 1 3.25 2.173v-.505l1.72-1.698.057-.05ZM5.5 15.086c1.38 0 2.5 1.106 2.5 2.47 0 1.363-1.12 2.469-2.5 2.469S3 18.919 3 17.555c0-1.363 1.12-2.469 2.5-2.469Zm0 1.482c-.552 0-1 .442-1 .988 0 .545.448.987 1 .987s1-.442 1-.987a.994.994 0 0 0-1-.988Zm7-7.408c2.21 0 4 1.77 4 3.951 0 2.182-1.79 3.95-4 3.95s-4-1.768-4-3.95c0-2.182 1.79-3.95 4-3.95Zm0 1.482c-1.38 0-2.5 1.105-2.5 2.47 0 1.363 1.12 2.468 2.5 2.468s2.5-1.105 2.5-2.469c0-1.364-1.12-2.469-2.5-2.469Z"/>
</svg>
