<svg xmlns="http://www.w3.org/2000/svg" width="24" height="24">
  <path d="m19.334 5.764-5.659-3.31a3.31 3.31 0 0 0-3.346 0l-5.66 3.31A3.387 3.387 0 0 0 3 8.69v6.62a3.39 3.39 0 0 0 1.669 2.926l5.658 3.31a3.31 3.31 0 0 0 3.346 0l5.658-3.31A3.385 3.385 0 0 0 21 15.31V8.692a3.382 3.382 0 0 0-1.666-2.928ZM4.312 8.69c0-.744.39-1.43 1.025-1.803l5.643-3.303c.632-.37 1.41-.37 2.043 0l3.222 1.888-9.771 5.716-2.162-1.264V8.69Zm7.558.841 4.367 2.554-4.114 2.406-4.366-2.554 4.113-2.406ZM5.337 17.1a2.084 2.084 0 0 1-1.025-1.803v-3.872l6.529 3.819L6.5 17.78l-1.164-.682Zm14.353-1.803c0 .745-.39 1.431-1.025 1.803l-5.642 3.303c-.633.37-1.411.37-2.043 0l-3.2-1.873 9.738-5.696 2.171 1.27v1.192Zm0-2.69-1.866-1.093-4.671-2.73 4.375-2.56 1.137.667a2.084 2.084 0 0 1 1.025 1.802v3.913Z"/>
</svg>
