<svg xmlns="http://www.w3.org/2000/svg" width="24" height="24">
  <path d="M8.5 12.5a3 3 0 0 1 3 3V19a3 3 0 0 1-3 3H5a3 3 0 0 1-3-3v-3.5a3 3 0 0 1 3-3h3.5Zm10.5 0a3 3 0 0 1 3 3V19a3 3 0 0 1-3 3h-3.5a3 3 0 0 1-3-3v-3.5a3 3 0 0 1 3-3H19ZM8.5 14H5a1.5 1.5 0 0 0-1.497 1.412L3.5 15.5V19a1.5 1.5 0 0 0 1.412 1.497L5 20.5h3.5a1.5 1.5 0 0 0 1.497-1.412L10 19v-3.5a1.5 1.5 0 0 0-1.412-1.498L8.5 14ZM19 14h-3.5a1.5 1.5 0 0 0-1.498 1.412L14 15.5V19a1.5 1.5 0 0 0 1.412 1.497l.088.003H19a1.5 1.5 0 0 0 1.497-1.412L20.5 19v-3.5a1.5 1.5 0 0 0-1.412-1.498L19 14ZM8.5 2a3 3 0 0 1 3 3v3.5a3 3 0 0 1-3 3H5a3 3 0 0 1-3-3V5a3 3 0 0 1 3-3h3.5ZM19 2a3 3 0 0 1 3 3v3.5a3 3 0 0 1-3 3h-3.5a3 3 0 0 1-3-3V5a3 3 0 0 1 3-3H19ZM8.5 3.5H5a1.5 1.5 0 0 0-1.497 1.412L3.5 5v3.5a1.5 1.5 0 0 0 1.412 1.497L5 10h3.5a1.5 1.5 0 0 0 1.497-1.412L10 8.5V5a1.5 1.5 0 0 0-1.412-1.497L8.5 3.5Zm10.5 0h-3.5a1.5 1.5 0 0 0-1.498 1.412L14 5v3.5a1.5 1.5 0 0 0 1.412 1.497L15.5 10H19a1.5 1.5 0 0 0 1.497-1.412L20.5 8.5V5a1.5 1.5 0 0 0-1.412-1.497L19 3.5Z"/>
</svg>
