<svg xmlns="http://www.w3.org/2000/svg" width="24" height="24">
  <path d="M13.77 12.71 19 17.94v-4.69a.2.2 0 0 1 .341-.141l1.1 1.1a.2.2 0 0 1 .059.141V19a1.5 1.5 0 0 1-1.412 1.497L19 20.5h-4.65a.2.2 0 0 1-.14-.059l-1.1-1.1a.2.2 0 0 1 .14-.341h4.69l-5.23-5.23a.2.2 0 0 1 0-.283l.777-.777a.2.2 0 0 1 .283 0ZM9.79 3.559l1.1 1.1a.2.2 0 0 1-.14.341H6.06l5.23 5.23a.2.2 0 0 1 0 .283l-.778.778a.2.2 0 0 1-.283 0L5 6.06v4.688a.2.2 0 0 1-.341.141l-1.1-1.1a.2.2 0 0 1-.059-.14V5a1.5 1.5 0 0 1 1.412-1.497L5 3.5h4.65a.2.2 0 0 1 .141.059Z"/>
</svg>
