<svg xmlns="http://www.w3.org/2000/svg" width="24" height="24">
  <path d="M5.279 12.477c.097 0 .18.07.193.164.015.109.032.217.052.325.578 2.975 3.259 5.225 6.476 5.225 3.223 0 5.906-2.257 6.478-5.239.015-.075.032-.179.05-.311a.194.194 0 0 1 .194-.164h1.083a.193.193 0 0 1 .194.212 8.255 8.255 0 0 1-.037.277c-.558 3.537-3.534 6.296-7.23 6.621v2.223c0 .105-.087.19-.195.19h-1.074a.193.193 0 0 1-.195-.19v-2.223c-3.697-.325-6.674-3.086-7.23-6.624A7.719 7.719 0 0 1 4 12.69a.192.192 0 0 1 .171-.21l.012-.002h1.095ZM12 2c2.562 0 4.638 2.025 4.638 4.524v5.238c0 2.498-2.076 4.523-4.638 4.523-2.561 0-4.638-2.025-4.638-4.523V6.524C7.362 4.025 9.438 2 12 2Z"/>
</svg>
