<svg xmlns="http://www.w3.org/2000/svg" width="24" height="24">
  <path d="M5.514 12.186c.014.19.028.34.042.445A6.503 6.503 0 0 0 12 18.25a6.504 6.504 0 0 0 6.438-5.577 7.61 7.61 0 0 0 .048-.487.2.2 0 0 1 .2-.186h1.102a.2.2 0 0 1 .2.213 9.259 9.259 0 0 1-.044.518 8.007 8.007 0 0 1-6.61 6.908 9.184 9.184 0 0 1-.407.056.2.2 0 0 0-.177.199V21.8a.2.2 0 0 1-.2.2h-1.1a.2.2 0 0 1-.2-.2v-1.905a.2.2 0 0 0-.178-.2A8.006 8.006 0 0 1 4.04 12.6a8.835 8.835 0 0 1-.029-.387.2.2 0 0 1 .2-.212h1.104a.2.2 0 0 1 .199.186ZM12 2a4.751 4.751 0 0 1 4.752 4.75v5A4.751 4.751 0 0 1 12 16.5a4.751 4.751 0 0 1-4.752-4.75v-5A4.751 4.751 0 0 1 12 2Zm0 1.5a3.25 3.25 0 0 0-3.25 3.133l-.002.117v5a3.25 3.25 0 0 0 6.502.117l.002-.117v-5A3.25 3.25 0 0 0 12 3.5Z"/>
</svg>
