<svg xmlns="http://www.w3.org/2000/svg" width="24" height="24">
  <path d="M2.988 4h1.543a.2.2 0 0 1 .141.059l10.951 10.974 1.235 1.239 1.06 1.06h-.002l2.817 2.827a.2.2 0 0 1-.142.341H19.04a.2.2 0 0 1-.142-.059l-1.723-1.728-.404-.405a7.924 7.924 0 0 1-3.825 1.407V21.8a.2.2 0 0 1-.2.2H11.65a.2.2 0 0 1-.2-.2v-2.085c-3.825-.356-6.868-3.417-7.204-7.257a7.927 7.927 0 0 1-.017-.247.2.2 0 0 1 .2-.21h1.1a.2.2 0 0 1 .2.186c.01.143.019.256.029.339.382 3.224 3.12 5.724 6.44 5.724a6.447 6.447 0 0 0 3.496-1.023l-.327-.329-.657-.659-.189-.19a.2.2 0 0 0-.23-.037 4.715 4.715 0 0 1-2.093.488 4.745 4.745 0 0 1-4.74-4.75V9.048a.2.2 0 0 0-.058-.141l-.292-.292-4.26-4.274A.2.2 0 0 1 2.988 4Zm17.177 8.213a9.272 9.272 0 0 1-.043.518 7.96 7.96 0 0 1-1.126 3.211.2.2 0 0 1-.312.037l-.157-.158-.495-.496-.149-.15a.2.2 0 0 1-.033-.238 6.47 6.47 0 0 0 .817-2.75.2.2 0 0 1 .2-.187h1.098a.2.2 0 0 1 .2.213ZM8.954 10.467v1.283a3.247 3.247 0 0 0 3.938 3.175c.09-.02.221-.057.394-.113l-.383-.384-3.513-3.524-.436-.437ZM12.198 2a4.745 4.745 0 0 1 4.74 4.75v5a4.752 4.752 0 0 1-.334 1.75.2.2 0 0 1-.327.066l-.139-.139-.582-.583-.152-.153a.2.2 0 0 1-.053-.186 3.286 3.286 0 0 0 .088-.639l.002-.116v-5a3.247 3.247 0 0 0-3.243-3.25 3.246 3.246 0 0 0-3.133 2.41.2.2 0 0 1-.336.093l-.037-.038-.61-.61-.215-.216a.2.2 0 0 1-.042-.22A4.738 4.738 0 0 1 12.197 2Z"/>
</svg>
