<svg xmlns="http://www.w3.org/2000/svg" width="24" height="24">
  <path d="M12.204 2h-.408l-.168.003a4.29 4.29 0 0 0-4.116 4.293v2.41l.006.212a4.472 4.472 0 0 0 1.341 2.988l1.075 1.05.07.077a.9.9 0 0 1 .201.568v.147l-.007.106a.86.86 0 0 1-.46.66l-6.76 3.466-.117.066A1.8 1.8 0 0 0 2 19.582v.3l.005.116a1.4 1.4 0 0 0 1.393 1.288h17.204A1.4 1.4 0 0 0 22 19.884v-.3a1.8 1.8 0 0 0-.978-1.604l-6.76-3.467a.86.86 0 0 1-.467-.766V13.6c0-.242.098-.474.271-.644l1.075-1.05a4.473 4.473 0 0 0 1.346-3.2v-2.41A4.29 4.29 0 0 0 12.204 2Z"/>
</svg>
