<svg xmlns="http://www.w3.org/2000/svg" width="24" height="24">
  <path d="M19.5 3a3 3 0 0 1 3 3v12a3 3 0 0 1-3 3h-1a1 1 0 0 0-1.997-.075L16.5 21H13a1 1 0 0 0-1.997-.075L11 21H7.5a1 1 0 0 0-1.997-.075L5.5 21h-1a3 3 0 0 1-2.998-2.887L1.5 18V6a3 3 0 0 1 3-3h15Zm0 1.5h-15a1.5 1.5 0 0 0-1.498 1.412L3 6v12a1.5 1.5 0 0 0 1.412 1.497l.088.003.032-.041a2.496 2.496 0 0 1 1.86-.956L6.5 18.5c.8 0 1.511.375 1.969.959l.031.041H10l.031-.041a2.496 2.496 0 0 1 1.86-.956L12 18.5c.8 0 1.511.375 1.969.959L14 19.5h1.5l.031-.041a2.496 2.496 0 0 1 1.86-.956l.109-.003c.8 0 1.511.375 1.968.959l.032.041a1.5 1.5 0 0 0 1.498-1.412L21 18V6a1.5 1.5 0 0 0-1.412-1.497L19.5 4.5Zm-8.634 2.014.037.017.948.545a.2.2 0 0 1 .09.237l-.017.037-1.533 2.646h.86c.11 0 .2.09.2.2v1.1a.2.2 0 0 1-.2.2h-1.8v1h1.8c.11 0 .2.09.2.2v1.1a.2.2 0 0 1-.2.2h-1.8v1.8a.2.2 0 0 1-.2.2h-1.1a.2.2 0 0 1-.2-.2v-1.8h-1.8a.2.2 0 0 1-.2-.2v-1.1c0-.11.09-.2.2-.2h1.8v-1h-1.8a.2.2 0 0 1-.2-.2v-1.1c0-.11.09-.2.2-.2h.958L5.576 7.35a.2.2 0 0 1 .073-.273l.948-.546a.2.2 0 0 1 .273.073l1.88 3.245 1.88-3.245a.2.2 0 0 1 .236-.09ZM17.8 12.5c.11 0 .2.09.2.2v1.1a.2.2 0 0 1-.2.2h-3.6a.2.2 0 0 1-.196-.16L14 13.8v-1.1c0-.11.09-.2.2-.2h3.6Zm0-2.5c.11 0 .2.09.2.2v1.1a.2.2 0 0 1-.16.196l-.04.004h-3.6a.2.2 0 0 1-.196-.16L14 11.3v-1.1c0-.11.09-.2.2-.2h3.6Z"/>
</svg>
