<svg xmlns="http://www.w3.org/2000/svg" width="24" height="24">
  <path d="M19 2a3 3 0 0 1 3 3v14a3 3 0 0 1-3 3H5a3 3 0 0 1-3-3V5a3 3 0 0 1 3-3h14Zm0 1.5H5a1.5 1.5 0 0 0-1.497 1.412L3.5 5v14a1.5 1.5 0 0 0 1.412 1.497L5 20.5h14a1.5 1.5 0 0 0 1.497-1.412L20.5 19V5a1.5 1.5 0 0 0-1.412-1.497L19 3.5Zm-7 7.7v1.1a.2.2 0 0 1-.2.2H3.2a.2.2 0 0 1-.2-.2v-1.1c0-.11.09-.2.2-.2h8.6c.11 0 .2.09.2.2Zm-2.5 4.5v1.1a.2.2 0 0 1-.2.2H5.2a.2.2 0 0 1-.2-.2v-1.1c0-.11.09-.2.2-.2h4.1c.11 0 .2.09.2.2Zm9.5-5.5v1.1a.2.2 0 0 1-.2.2h-4.1a.2.2 0 0 1-.2-.2v-1.1c0-.11.09-.2.2-.2h4.1c.11 0 .2.09.2.2Zm0 2.5v1.1a.2.2 0 0 1-.2.2h-4.1a.2.2 0 0 1-.2-.2v-1.1c0-.11.09-.2.2-.2h4.1c.11 0 .2.09.2.2Zm-9.5-6v1.1a.2.2 0 0 1-.2.2H5.2a.2.2 0 0 1-.2-.2V6.7c0-.11.09-.2.2-.2h4.1c.11 0 .2.09.2.2Zm3-3.5v18.1a.2.2 0 0 1-.2.2h-1.1a.2.2 0 0 1-.2-.2V3.2c0-.11.09-.2.2-.2h1.1c.11 0 .2.09.2.2ZM8 5.2v4.1a.2.2 0 0 1-.2.2H6.7a.2.2 0 0 1-.2-.2V5.2c0-.11.09-.2.2-.2h1.1c.11 0 .2.09.2.2Z"/>
</svg>
