<svg xmlns="http://www.w3.org/2000/svg" width="24" height="24">
  <path d="M9 2.2v1.3h6V2.2c0-.11.09-.2.2-.2h1.1c.11 0 .2.09.2.2v1.3h2a3 3 0 0 1 3 3V19a3 3 0 0 1-3 3h-13a3 3 0 0 1-3-3V6.5a3 3 0 0 1 3-3h2V2.2c0-.11.09-.2.2-.2h1.1c.11 0 .2.09.2.2ZM20 10H4v9a1.5 1.5 0 0 0 1.412 1.497l.088.003h13a1.5 1.5 0 0 0 1.497-1.412L20 19v-9ZM7.5 5h-2a1.5 1.5 0 0 0-1.497 1.412L4 6.5v2h16v-2a1.5 1.5 0 0 0-1.412-1.497L18.5 5h-2v1.3a.2.2 0 0 1-.2.2h-1.1a.2.2 0 0 1-.2-.2V5H9v1.3a.2.2 0 0 1-.2.2H7.7a.2.2 0 0 1-.2-.2V5Z"/>
</svg>
