<svg xmlns="http://www.w3.org/2000/svg" width="24" height="24">
  <path d="M14.868 2.5c.571 0 1.087.34 1.312.864l.65 1.511h2.313A2.854 2.854 0 0 1 22 7.725V18.65c0 1.574-1.28 2.85-2.857 2.85H4.857A2.854 2.854 0 0 1 2 18.65V7.725c0-1.574 1.28-2.85 2.857-2.85H7.17l.65-1.511A1.429 1.429 0 0 1 9.132 2.5h5.736ZM14.844 4H9.156L8.144 6.353H4.917c-.75 0-1.37.583-1.415 1.329l-.002.083v10.823c0 .748.585 1.366 1.334 1.41l.083.002h14.166c.75 0 1.37-.583 1.415-1.329l.002-.083V7.765c0-.748-.585-1.366-1.334-1.41l-.083-.002h-3.227L14.844 4ZM12.25 8a4.75 4.75 0 1 1 0 9.5 4.75 4.75 0 0 1 0-9.5Zm0 1.5a3.25 3.25 0 1 0 0 6.5 3.25 3.25 0 0 0 0-6.5Zm6-2a.75.75 0 1 1 0 1.5.75.75 0 0 1 0-1.5Z"/>
</svg>
