<svg xmlns="http://www.w3.org/2000/svg" width="24" height="24">
  <path d="M12 2.5c5.523 0 10 4.253 10 9.5s-4.477 9.5-10 9.5a10.364 10.364 0 0 1-4.959-1.249l-2.48 1.074a.91.91 0 0 1-1.196-.469.9.9 0 0 1-.05-.57l.634-2.65A9.147 9.147 0 0 1 2 12c0-5.247 4.477-9.5 10-9.5Zm0 1.357c-4.784 0-8.636 3.66-8.636 8.143 0 1.687.544 3.296 1.546 4.65l.117.155.399.513-.575 2.401 2.259-.977.585.319A8.994 8.994 0 0 0 12 20.143c4.784 0 8.636-3.66 8.636-8.143 0-4.483-3.852-8.143-8.636-8.143ZM12.55 8c.11 0 .2.09.2.2v2.79h2.8c.11 0 .2.09.2.2v1.093a.2.2 0 0 1-.16.196l-.04.004h-2.8v2.79a.2.2 0 0 1-.2.2h-1.1a.2.2 0 0 1-.2-.2v-2.79h-2.8a.2.2 0 0 1-.2-.2V11.19c0-.11.09-.2.2-.2h2.8V8.2c0-.11.09-.2.2-.2h1.1Z"/>
</svg>
