<svg xmlns="http://www.w3.org/2000/svg" width="24" height="24">
  <path d="M12 2.5c5.523 0 10 4.253 10 9.5s-4.477 9.5-10 9.5a10.364 10.364 0 0 1-4.959-1.249l-2.48 1.074a.91.91 0 0 1-1.196-.469.9.9 0 0 1-.05-.57l.634-2.65A9.147 9.147 0 0 1 2 12c0-5.247 4.477-9.5 10-9.5Zm0 1.357c-4.784 0-8.636 3.66-8.636 8.143 0 1.687.544 3.296 1.546 4.65l.117.155.399.513-.575 2.401 2.259-.977.585.319A8.994 8.994 0 0 0 12 20.143c4.784 0 8.636-3.66 8.636-8.143 0-4.483-3.852-8.143-8.636-8.143ZM16.89 9a.2.2 0 0 1 .14.341l-5.298 5.299a.75.75 0 0 1-1.06 0l-.039-.041a.752.752 0 0 1-.153-.119l-2.639-2.639a.2.2 0 0 1 .142-.341h1.555a.2.2 0 0 1 .142.059l1.506 1.506 4.006-4.006A.2.2 0 0 1 15.333 9h1.556Z"/>
</svg>
