<svg xmlns="http://www.w3.org/2000/svg" width="24" height="24">
  <path d="m11.791 2.008 8.14 1.667A1.983 1.983 0 0 1 21.5 5.607v9.276a3.951 3.951 0 0 1-2.06 3.462l-6.72 3.411a2.02 2.02 0 0 1-1.94 0l-6.22-3.412a3.951 3.951 0 0 1-2.06-3.46V5.606c0-.929.653-1.733 1.57-1.932l7.639-1.666a.2.2 0 0 1 .082 0Zm4.562 7.494H14.8a.2.2 0 0 0-.14.057l-3.24 3.206-1.74-1.721a.2.2 0 0 0-.14-.058H7.986a.2.2 0 0 0-.14.342l2.87 2.84a.996.996 0 0 0 .662.288h.08l.08-.006a.996.996 0 0 0 .584-.282l4.37-4.324a.2.2 0 0 0-.14-.342Z"/>
</svg>
