<svg xmlns="http://www.w3.org/2000/svg" width="24" height="24">
  <path d="m11.791 2.008 8.14 1.666A1.984 1.984 0 0 1 21.5 5.606v9.274a3.95 3.95 0 0 1-2.06 3.461l-6.72 3.41a2.02 2.02 0 0 1-1.94 0l-6.22-3.41a3.95 3.95 0 0 1-2.06-3.46V5.605c0-.928.653-1.732 1.57-1.932l7.639-1.665a.2.2 0 0 1 .082 0Zm-.082 1.52L4.392 5.123a.497.497 0 0 0-.389.426L4 5.606v9.274c0 .794.81 1.533 1.513 1.995l.173.11.102.058 5.72 3.411a.505.505 0 0 0 .427.027l.057-.027 6.72-3.41a2.47 2.47 0 0 0 1.285-2.047L20 14.88V5.607c0-.213-.137-.4-.337-.467l-.055-.016-7.817-1.596a.2.2 0 0 0-.082 0ZM16.353 9.5a.2.2 0 0 1 .14.342l-4.37 4.323a.996.996 0 0 1-.583.282l-.08.007h-.08a.997.997 0 0 1-.664-.289l-2.87-2.839a.2.2 0 0 1 .141-.342h1.552a.2.2 0 0 1 .14.058l1.74 1.72 3.24-3.204A.2.2 0 0 1 14.8 9.5h1.553Z"/>
</svg>
