<svg xmlns="http://www.w3.org/2000/svg" width="24" height="24">
  <path d="m11.75 2 8.18 1.674c.917.2 1.57 1.004 1.57 1.932v9.274a3.95 3.95 0 0 1-2.06 3.461l-6.72 3.41a2.02 2.02 0 0 1-1.94 0l-6.22-3.41a3.95 3.95 0 0 1-2.06-3.46V5.605c0-.928.653-1.732 1.57-1.932L11.75 2Zm0 1.519L4.392 5.123a.497.497 0 0 0-.389.426L4 5.606v9.274c0 .86.951 1.655 1.686 2.104l.102.06 5.72 3.41a.505.505 0 0 0 .427.027l.057-.027 6.72-3.41a2.47 2.47 0 0 0 1.285-2.047L20 14.88V5.606c0-.213-.137-.4-.337-.467l-.055-.016L11.75 3.52ZM10.175 9a.2.2 0 0 1 .14.058l1.564 1.546 1.563-1.546a.2.2 0 0 1 .14-.058h1.553a.2.2 0 0 1 .141.342l-2.336 2.311 2.472 2.445a.2.2 0 0 1-.141.342h-1.553a.2.2 0 0 1-.14-.057l-1.699-1.68-1.7 1.68a.2.2 0 0 1-.14.058H8.487a.2.2 0 0 1-.141-.343l2.472-2.445-2.336-2.31A.2.2 0 0 1 8.622 9h1.553Z"/>
</svg>
