<svg xmlns="http://www.w3.org/2000/svg" width="24" height="24">
  <path d="M19 2a3 3 0 0 1 3 3v14a3 3 0 0 1-3 3H5a3 3 0 0 1-3-3V5a3 3 0 0 1 3-3h14Zm0 1.5H5a1.5 1.5 0 0 0-1.497 1.412L3.5 5v14a1.5 1.5 0 0 0 1.412 1.497L5 20.5h14a1.5 1.5 0 0 0 1.497-1.412L20.5 19V5a1.5 1.5 0 0 0-1.412-1.497L19 3.5ZM7.3 9c.11 0 .2.09.2.2v6.1a.2.2 0 0 1-.2.2H6.2a.2.2 0 0 1-.2-.2V9.2c0-.11.09-.2.2-.2h1.1Zm3.5 0c.11 0 .2.09.2.2v6.1a.2.2 0 0 1-.2.2H9.7a.2.2 0 0 1-.2-.2V9.2c0-.11.09-.2.2-.2h1.1Zm3.5 0c.11 0 .2.09.2.2v6.1a.2.2 0 0 1-.2.2h-1.1a.2.2 0 0 1-.2-.2V9.2c0-.11.09-.2.2-.2h1.1Zm3.5 0c.11 0 .2.09.2.2v6.1a.2.2 0 0 1-.2.2h-1.1a.2.2 0 0 1-.2-.2V9.2c0-.11.09-.2.2-.2h1.1Z"/>
</svg>
