<svg xmlns="http://www.w3.org/2000/svg" width="24" height="24">
  <path d="M12 1c6.075 0 11 4.925 11 11s-4.925 11-11 11S1 18.075 1 12 5.925 1 12 1Zm0 1.5a9.5 9.5 0 1 0 0 19 9.5 9.5 0 0 0 0-19Zm4.69 5.358a.917.917 0 0 1 0 .627l-2.129 4.98c-.185.51-.587.91-1.097 1.096l-4.98 2.13a.917.917 0 0 1-1.174-1.176l2.129-4.98c.185-.51.587-.91 1.097-1.096l4.98-2.13a.917.917 0 0 1 1.174.55Zm-1.628 1.08-4.057 1.793a.458.458 0 0 0-.25.221l-.024.053-1.793 4.057 4.057-1.793a.459.459 0 0 0 .25-.221l.024-.053 1.793-4.057Z"/>
</svg>
