<svg xmlns="http://www.w3.org/2000/svg" width="24" height="24">
  <path d="m9.314 3 .106.002c.942.033 1.931.511 2.58 1.232.649-.721 1.638-1.199 2.58-1.232L14.686 3h4.884c1.581 0 2.87 1.283 2.928 2.888L22.5 6v11c0 1.62-1.253 2.939-2.82 2.998l-.11.002h-5.498A2.66 2.66 0 0 1 12 21c-.834 0-1.58-.39-2.072-1H4.43l-.11-.002c-1.53-.058-2.762-1.318-2.818-2.886L1.5 17V6l.002-.112C1.558 4.32 2.789 3.06 4.32 3.002L4.43 3h4.884Zm1.49 15.5c.113.57.605 1 1.196 1 .59 0 1.083-.43 1.197-1h6.373l.086-.003a1.481 1.481 0 0 0 1.376-1.409l.003-.088V6l-.003-.088c-.043-.758-.636-1.366-1.376-1.41L19.57 4.5h-4.884l-.086.003c-.743.044-1.792.654-1.864 1.415L12.733 6v9.8a.2.2 0 0 1-.2.2h-1.066a.2.2 0 0 1-.2-.2V6l-.003-.082c-.07-.734-1.048-1.328-1.783-1.409L9.4 4.503 9.314 4.5H4.43l-.086.003a1.48 1.48 0 0 0-1.369 1.319l-.007.09L2.965 6v11l.003.088c.04.728.589 1.317 1.288 1.401l.088.008.086.003h6.373Zm-1.49-6.3v1.1a.2.2 0 0 1-.2.2H4.63a.2.2 0 0 1-.2-.2v-1.1c0-.11.09-.2.2-.2h4.484c.11 0 .2.09.2.2Zm10.256 0v1.1a.2.2 0 0 1-.2.2h-4.972a.2.2 0 0 1-.2-.2v-1.1c0-.11.09-.2.2-.2h4.972c.11 0 .2.09.2.2Zm-10.256-3v1.1a.2.2 0 0 1-.2.2H4.63a.2.2 0 0 1-.2-.2V9.2c0-.11.09-.2.2-.2h4.484c.11 0 .2.09.2.2Zm10.256 0v1.1a.2.2 0 0 1-.2.2h-4.972a.2.2 0 0 1-.2-.2V9.2c0-.11.09-.2.2-.2h4.972c.11 0 .2.09.2.2Z"/>
</svg>
