<svg xmlns="http://www.w3.org/2000/svg" width="24" height="24">
  <path d="M6.315 3a.2.2 0 0 1 .2.181c.012.135.028.24.047.316a2 2 0 0 0 3.872.013c.02-.078.038-.188.052-.33a.2.2 0 0 1 .199-.18H19.5a3 3 0 0 1 3 3v12a3 3 0 0 1-3 3h-8.813a.2.2 0 0 1-.2-.183 2.003 2.003 0 0 0-.029-.226 2 2 0 0 0-3.91-.03 2.067 2.067 0 0 0-.035.257.2.2 0 0 1-.2.182H4.5a3 3 0 0 1-3-3V6a3 3 0 0 1 3-3h1.815Zm-.978 1.5H4.5a1.5 1.5 0 0 0-1.497 1.412L3 6v12a1.5 1.5 0 0 0 1.412 1.497l.088.003h.837l.033-.068a3.5 3.5 0 0 1 3.01-1.93l.12-.002a3.5 3.5 0 0 1 3.13 1.932l.032.068H19.5a1.5 1.5 0 0 0 1.497-1.412L21 18V6a1.5 1.5 0 0 0-1.412-1.497L19.5 4.5h-7.838l-.032.068a3.5 3.5 0 0 1-6.26 0L5.337 4.5ZM8.8 9c.11 0 .2.09.2.2v5.6a.2.2 0 0 1-.2.2H7.7a.2.2 0 0 1-.2-.2V9.2c0-.11.09-.2.2-.2h1.1Z"/>
</svg>
