<svg xmlns="http://www.w3.org/2000/svg" width="24" height="24">
  <path d="M16.5 1.5A1.5 1.5 0 0 1 18 3v1.5h3.3c.11 0 .2.09.2.2v1.1a.2.2 0 0 1-.2.2h-.8v13.5a3 3 0 0 1-3 3h-11a3 3 0 0 1-3-3V6h-.8a.2.2 0 0 1-.2-.2V4.7c0-.11.09-.2.2-.2H6V3a1.5 1.5 0 0 1 1.5-1.5h9ZM19 6H5v13.5a1.5 1.5 0 0 0 1.412 1.497L6.5 21h11a1.5 1.5 0 0 0 1.497-1.412L19 19.5V6ZM9.8 9c.11 0 .2.09.2.2v8.6a.2.2 0 0 1-.2.2H8.7a.2.2 0 0 1-.2-.2V9.2c0-.11.09-.2.2-.2h1.1Zm6 0c.11 0 .2.09.2.2v8.6a.2.2 0 0 1-.2.2h-1.1a.2.2 0 0 1-.2-.2V9.2c0-.11.09-.2.2-.2h1.1Zm.7-6h-9v1.5h9V3Z"/>
</svg>
