<svg xmlns="http://www.w3.org/2000/svg" width="24" height="24">
  <path d="M20.78 19.47c.14 0 .21.068.21.204v1.122c0 .136-.07.204-.21.204h-8.506c-.14 0-.21-.068-.21-.204v-1.122c0-.136.07-.204.21-.204h8.505ZM13.765 6.92l3.712 3.605a.5.5 0 0 1 0 .721l-9.87 9.586a.534.534 0 0 1-.37.15H4.05c-.58 0-1.05-.457-1.05-1.02v-3.096c0-.135.055-.265.153-.36l9.87-9.586c.206-.2.538-.2.743 0Zm7.013 9.49c.14 0 .21.069.21.205v1.122c0 .136-.07.204-.21.204h-4.305c-.14 0-.21-.068-.21-.204v-1.122c0-.136.07-.204.21-.204h4.305Zm-.702-12.014a2.997 2.997 0 0 1 0 4.327l-.742.72a.537.537 0 0 1-.693.043l-.05-.042-3.712-3.606a.5.5 0 0 1 0-.721l.742-.721a3.217 3.217 0 0 1 4.455 0Z"/>
</svg>
