<svg xmlns="http://www.w3.org/2000/svg" width="24" height="24">
  <path d="m11.791 2.008 8.14 1.666A1.984 1.984 0 0 1 21.5 5.606v9.274a3.95 3.95 0 0 1-2.06 3.461l-6.72 3.41a2.02 2.02 0 0 1-1.94 0l-6.22-3.41a3.95 3.95 0 0 1-2.06-3.46V5.605c0-.928.653-1.732 1.57-1.932l7.639-1.665a.2.2 0 0 1 .082 0Zm-.082 1.52L4.392 5.123a.497.497 0 0 0-.389.426L4 5.606v9.274c0 .86.951 1.655 1.686 2.104l.102.06 5.72 3.41a.505.505 0 0 0 .427.027l.057-.027 6.72-3.41a2.47 2.47 0 0 0 1.285-2.047L20 14.88V5.607c0-.213-.137-.4-.337-.467l-.055-.016-7.817-1.596a.2.2 0 0 0-.082 0ZM12.55 15c.11 0 .2.09.2.2v1.1a.2.2 0 0 1-.2.2h-1.1a.2.2 0 0 1-.2-.2v-1.1c0-.11.09-.2.2-.2h1.1Zm0-8c.11 0 .2.09.2.2v6.1a.2.2 0 0 1-.2.2h-1.1a.2.2 0 0 1-.2-.2V7.2c0-.11.09-.2.2-.2h1.1Z"/>
</svg>
