<svg xmlns="http://www.w3.org/2000/svg" width="24" height="24">
  <path d="m11.791 2.008 8.14 1.667A1.983 1.983 0 0 1 21.5 5.607v9.276a3.951 3.951 0 0 1-2.06 3.462l-6.72 3.411a2.02 2.02 0 0 1-1.94 0l-6.22-3.412a3.951 3.951 0 0 1-2.06-3.46V5.606c0-.929.653-1.733 1.57-1.932l7.639-1.666a.2.2 0 0 1 .082 0Zm.759 12.995h-1.1a.2.2 0 0 0-.2.2v1.1c0 .11.09.2.2.2h1.1a.2.2 0 0 0 .2-.2v-1.1a.2.2 0 0 0-.2-.2Zm0-8.002h-1.1a.2.2 0 0 0-.2.2v6.102c0 .11.09.2.2.2h1.1a.2.2 0 0 0 .2-.2V7.2a.2.2 0 0 0-.2-.2Z"/>
</svg>
