<svg xmlns="http://www.w3.org/2000/svg" width="24" height="24">
  <path d="M12.712 2.506c.303.174.553.426.726.73l8.557 15.095c.531.937.206 2.13-.726 2.663a1.934 1.934 0 0 1-.962.256H3.193a1.948 1.948 0 0 1-1.943-1.953c0-.339.088-.672.255-.966l8.557-15.095a1.938 1.938 0 0 1 2.65-.73Zm-1.353 1.442-.03.047-8.55 15.028a.486.486 0 0 0 .365.724l.056.003h17.1a.485.485 0 0 0 .446-.676l-.025-.05-8.55-15.029a.485.485 0 0 0-.812-.047Zm1.124 12.502v1.1a.2.2 0 0 1-.2.2h-1.066a.2.2 0 0 1-.2-.2v-1.1c0-.11.09-.2.2-.2h1.066c.11 0 .2.09.2.2Zm0-7v5.1a.2.2 0 0 1-.2.2h-1.066a.2.2 0 0 1-.2-.2v-5.1c0-.11.09-.2.2-.2h1.066c.11 0 .2.09.2.2Z"/>
</svg>
