<svg xmlns="http://www.w3.org/2000/svg" width="24" height="24">
  <path d="M12 3.73c2.008 0 3.848.738 5.268 1.963l.179.156.198.177.211.194.343.322.374.36.405.397.288.286.616.62.498.51.712.738.768.804.404.427c.678.718.703 1.807.073 2.552l-.072.081-.791.835-.562.586-.701.724-.49.499-.605.607-.282.278-.397.386-.366.349-.335.31-.206.187-.192.17-.091.078a8.04 8.04 0 0 1-5.248 1.944 8.041 8.041 0 0 1-5.272-1.966l-.179-.156-.197-.177-.322-.297-.353-.335-.384-.372-.415-.41-.602-.603-.656-.67-.712-.737-.967-1.014-.204-.216a1.907 1.907 0 0 1-.072-2.553l.072-.081.978-1.028.45-.469.636-.655.398-.407.378-.381.456-.454.458-.449.283-.272.39-.367.239-.218.22-.196.104-.09a8.042 8.042 0 0 1 5.273-1.967Zm0 1.46a6.52 6.52 0 0 0-4.279 1.598l-.263.232-.197.18-.322.3-.48.46-.396.39-.428.427-.46.465-.49.502-.523.54-.745.779-.577.608a.477.477 0 0 0 0 .658l.76.8.906.943.501.515.62.629.429.427.268.264.376.365.232.222.323.301.29.263.177.154a6.517 6.517 0 0 0 8.534.018l.171-.149.191-.17.206-.188.22-.205.233-.222.248-.24.399-.39.58-.58.473-.48.503-.517.72-.748.38-.4.58-.61a.477.477 0 0 0 0-.66l-.943-.991-.89-.924-.65-.664-.45-.453-.42-.416-.387-.378-.24-.231-.226-.214-.313-.29-.191-.17-.176-.155a6.516 6.516 0 0 0-4.275-1.596Zm0 2.31c2.418 0 4.378 2.015 4.378 4.5 0 2.486-1.96 4.5-4.378 4.5S7.622 14.487 7.622 12c0-2.485 1.96-4.5 4.378-4.5Zm.048 1.5v1.8l-.003.09a1.2 1.2 0 0 1-1.115 1.107l-.082.003h-1.8l.003.13A3 3 0 1 0 12.048 9Z"/>
</svg>
