<svg xmlns="http://www.w3.org/2000/svg" width="24" height="24">
  <path d="M12 3.5c2.047 0 3.922.759 5.37 2.018 1.023.889 2.72 2.599 5.092 5.13a1.97 1.97 0 0 1 .075 2.622l-.074.084-.202.216c-2.274 2.423-3.911 4.067-4.913 4.931a8.154 8.154 0 0 1-10.723-.021c-1.022-.89-2.718-2.598-5.087-5.126a1.972 1.972 0 0 1-.074-2.624l.074-.084.201-.215c2.264-2.41 3.893-4.046 4.885-4.91A8.159 8.159 0 0 1 11.999 3.5Zm0 4c-2.534 0-4.588 2.015-4.588 4.5S9.466 16.5 12 16.5c2.534 0 4.587-2.015 4.587-4.5S14.533 7.5 12 7.5Zm0 2c1.407 0 2.548 1.12 2.548 2.5S13.407 14.5 12 14.5c-1.365 0-2.487-1.054-2.546-2.392L9.45 12h1.529c.533 0 .977-.403 1.017-.925l.002-.075V9.5Z"/>
</svg>
