<svg xmlns="http://www.w3.org/2000/svg" width="24" height="24">
  <path d="M22 7.968V9.57a.2.2 0 0 1-.067.15c-.984.874-1.76 1.49-2.326 1.848l1.928 2.24a.2.2 0 0 1-.022.282l-.003.003-.84.687a.2.2 0 0 1-.278-.024l-2.106-2.448a14.133 14.133 0 0 1-3.408 1.161l1.03 2.76a.2.2 0 0 1-.12.258l-1.033.367a.2.2 0 0 1-.255-.119l-1.135-3.041a14.527 14.527 0 0 1-3.067-.036l-1.149 3.077a.2.2 0 0 1-.254.119l-1.032-.367a.2.2 0 0 1-.122-.255l.001-.003 1.056-2.83a14.128 14.128 0 0 1-3.084-1.091l-2.106 2.448a.2.2 0 0 1-.278.024l-.84-.687a.2.2 0 0 1-.028-.281l.003-.004 1.928-2.24c-.567-.358-1.342-.974-2.326-1.849A.2.2 0 0 1 2 9.57V7.982a.2.2 0 0 1 .355-.126l.056.069.098.114c2.292 2.606 5.694 4.257 9.491 4.257 3.805 0 7.212-1.658 9.505-4.273l.15-.176a.194.194 0 0 1 .345.122Z"/>
</svg>
