<svg xmlns="http://www.w3.org/2000/svg" width="24" height="24">
  <path d="M3.75 3a.2.2 0 0 1 .141.058L20.442 19.66a.2.2 0 0 1-.141.341h-1.55a.2.2 0 0 1-.142-.058l-1.356-1.361-.056.048a8.155 8.155 0 0 1-10.572-.15c-.993-.863-2.621-2.5-4.886-4.91l-.201-.215a1.972 1.972 0 0 1-.074-2.624l.074-.084.201-.215a127.078 127.078 0 0 1 3.645-3.754L2.058 3.341A.2.2 0 0 1 2.2 3h1.55Zm8.25.5c2.047 0 3.922.759 5.37 2.018.994.863 2.624 2.501 4.89 4.915l.202.215a1.97 1.97 0 0 1 .075 2.622l-.074.084-.202.216a138.563 138.563 0 0 1-3.16 3.277l-2.962-2.907c1.093-2.241.127-4.928-2.158-6.001a4.667 4.667 0 0 0-3.96 0l-2.884-2.83A8.145 8.145 0 0 1 11.999 3.5ZM8.755 15.181c1.552 1.524 3.94 1.727 5.716.61l-1.486-1.49a2.585 2.585 0 0 1-2.788-.549 2.466 2.466 0 0 1-.522-2.77L8.19 9.492a4.438 4.438 0 0 0 .566 5.69ZM11.999 9.5c1.408 0 2.549 1.119 2.549 2.5 0 .118-.009.237-.026.354l-2.884-2.83c.079-.01.159-.018.24-.021l.121-.003Z"/>
</svg>
