<svg xmlns="http://www.w3.org/2000/svg" width="24" height="24">
  <path d="M1.3 11c.11 0 .2.09.2.2v5.3a2 2 0 0 0 1.9 1.998l.1.002h5.3c.11 0 .2.09.2.2v1.1a.2.2 0 0 1-.2.2H3a3 3 0 0 1-3-3v-5.8c0-.11.09-.2.2-.2h1.1Zm18.5 0c.11 0 .2.09.2.2V17a3 3 0 0 1-3 3h-5.8a.2.2 0 0 1-.2-.2v-1.1c0-.11.09-.2.2-.2h5.3a2 2 0 0 0 1.998-1.9l.002-.1v-5.3c0-.11.09-.2.2-.2h1.1Zm-13.55-.5a.2.2 0 0 1 .2.19c.007.134.016.24.027.318a3.569 3.569 0 0 0 7.066-.01c.009-.059.017-.162.025-.31a.2.2 0 0 1 .2-.188h1.025a.2.2 0 0 1 .2.2v.008a5.16 5.16 0 0 1-.018.299 5 5 0 0 1-9.95-.008 5.203 5.203 0 0 1-.018-.291.2.2 0 0 1 .191-.208H6.25ZM8.8 0c.11 0 .2.09.2.2v1.1a.2.2 0 0 1-.2.2H3.5a2 2 0 0 0-1.998 1.9l-.002.1v5.3a.2.2 0 0 1-.2.2H.2a.2.2 0 0 1-.2-.2V3a3 3 0 0 1 3-3h5.8ZM17 0a3 3 0 0 1 3 3v5.8a.2.2 0 0 1-.2.2h-1.1a.2.2 0 0 1-.2-.2V3.5a2 2 0 0 0-2-2h-5.3a.2.2 0 0 1-.2-.2V.2c0-.11.09-.2.2-.2H17ZM8 5v2.5a1 1 0 1 1-2 0V6a1 1 0 0 1 1-1h1Zm6 0v2.5a1 1 0 1 1-2 0V6a1 1 0 0 1 1-1h1Z"/>
</svg>
