<svg xmlns="http://www.w3.org/2000/svg" width="24" height="24">
  <path d="M19 2a3 3 0 0 1 3 3v8.796a.2.2 0 0 1-.2.2h-1.1a.2.2 0 0 1-.2-.2V5a1.5 1.5 0 0 0-1.412-1.497L19 3.5H5a1.5 1.5 0 0 0-1.497 1.41L3.5 5v13.997a1.5 1.5 0 0 0 1.412 1.497l.088.002h8.3a.2.2 0 0 1 .196.16l.004.04v1.1a.2.2 0 0 1-.2.2H5a3 3 0 0 1-3-3V5a3 3 0 0 1 3-3h14Zm1.836 13.633.778.777a.2.2 0 0 1 .026.252l-.026.031-1.803 1.802 1.803 1.803a.2.2 0 0 1 .026.252l-.026.031-.778.778a.2.2 0 0 1-.283 0l-1.803-1.804-1.803 1.804a.2.2 0 0 1-.283 0l-.778-.778a.2.2 0 0 1-.025-.251l.025-.032 1.803-1.802-1.803-1.803a.2.2 0 0 1-.025-.251l.025-.032.778-.777a.2.2 0 0 1 .283 0l1.803 1.802 1.803-1.802a.2.2 0 0 1 .283 0ZM9.8 14.5c.11 0 .2.09.2.2v1.1a.2.2 0 0 1-.2.2H7.2a.2.2 0 0 1-.2-.2v-1.1c0-.11.09-.2.2-.2h2.6Zm7-3c.11 0 .2.09.2.2v1.1a.2.2 0 0 1-.2.2H7.2a.2.2 0 0 1-.2-.2v-1.1c0-.11.09-.2.2-.2h9.6Zm0-3c.11 0 .2.09.2.2v1.1a.2.2 0 0 1-.2.2H7.2a.2.2 0 0 1-.2-.2V8.7c0-.11.09-.2.2-.2h9.6Z"/>
</svg>
