<svg xmlns="http://www.w3.org/2000/svg" width="24" height="24">
  <path d="M12.5 2.2v1.1a.2.2 0 0 1-.2.2H5a1.5 1.5 0 0 0-1.497 1.412L3.5 5v14a1.5 1.5 0 0 0 1.412 1.497L5 20.5h14a1.5 1.5 0 0 0 1.497-1.412L20.5 19v-7.3c0-.11.09-.2.2-.2h1.1c.11 0 .2.09.2.2V19a3 3 0 0 1-3 3H5a3 3 0 0 1-3-3V5a3 3 0 0 1 3-3h7.3c.11 0 .2.09.2.2Zm8.48.57a2.5 2.5 0 0 1 0 3.535l-6.674 6.675a.2.2 0 0 1-.155.058l-3.043-.21a.2.2 0 0 1-.186-.186l-.21-3.043a.2.2 0 0 1 .058-.155l6.675-6.674a2.5 2.5 0 0 1 3.535 0Zm-4.093 2.678-4.573 4.574a.2.2 0 0 0-.058.155l.085 1.232 1.232.085a.2.2 0 0 0 .155-.058l4.574-4.574-1.415-1.414ZM18.56 3.78l-.055.05-.557.557 1.415 1.415.556-.557a1 1 0 0 0 .051-1.36l-.05-.054a1 1 0 0 0-1.36-.051Z"/>
</svg>
