<svg xmlns="http://www.w3.org/2000/svg" width="24" height="24">
  <path d="M19 2c1.105 0 2 .885 2 1.976v1.513a.982.982 0 0 1-.294.7L15 11.39v7.285a1.97 1.97 0 0 1-.971 1.694l-3.514 1.49a1.007 1.007 0 0 1-1.372-.339.979.979 0 0 1-.143-.508V11.39L3.36 6.248a.983.983 0 0 1-.36-.76V3.977C3 2.885 3.895 2 5 2h14Zm0 1.482H5a.498.498 0 0 0-.497.436l-.003.058v1.193a.2.2 0 0 0 .066.148l5.868 5.32a.2.2 0 0 1 .066.148v9.065a.2.2 0 0 0 .27.187l2.487-.939a.493.493 0 0 0 .239-.359l.004-.064v-7.89a.2.2 0 0 1 .066-.148l5.868-5.32a.2.2 0 0 0 .066-.149V3.976a.496.496 0 0 0-.442-.49L19 3.481Zm2 14.53v1.081a.2.2 0 0 1-.2.2h-3.6a.2.2 0 0 1-.2-.2v-1.081a.2.2 0 0 1 .2-.2h3.6a.2.2 0 0 1 .2.2Zm0-2.964v1.082a.2.2 0 0 1-.2.2h-3.6a.2.2 0 0 1-.2-.2v-1.082c0-.11.09-.2.2-.2h3.6c.11 0 .2.09.2.2Zm0-2.964v1.082a.2.2 0 0 1-.2.2h-3.6a.2.2 0 0 1-.2-.2v-1.082c0-.11.09-.2.2-.2h3.6c.11 0 .2.09.2.2Z"/>
</svg>
