<svg xmlns="http://www.w3.org/2000/svg" width="24" height="24">
  <path d="M20.571 4.4v3.385A1.902 1.902 0 0 1 22 9.625v9.025c0 1.574-1.28 2.85-2.857 2.85H4.857A2.854 2.854 0 0 1 2 18.65V7.25c0-.866.587-1.623 1.428-1.84V4.4c0-1.05.853-1.9 1.905-1.9h13.333c1.053 0 1.905.85 1.905 1.9ZM3.43 7.25v11.4c0 .755.59 1.378 1.344 1.423l.084.002h14.286c.756 0 1.382-.588 1.426-1.341l.002-.084V9.625c0-.24-.18-.443-.42-.472l-.056-.003h-5.279l-2.725-2.265a.477.477 0 0 0-.238-.105l-.067-.005H3.905a.476.476 0 0 0-.473.42l-.003.055Zm11.945.475h3.769V4.4c0-.24-.18-.443-.42-.472l-.056-.003H5.333a.476.476 0 0 0-.473.42l-.003.055v.95h7.66l2.857 2.375Z"/>
</svg>
