<svg xmlns="http://www.w3.org/2000/svg" width="24" height="24">
  <path d="M3.679 19.178v-8.056A1.887 1.887 0 0 1 2.25 9.299V6.947c0-1.039.853-1.881 1.905-1.881h6.493L9.116 3.553a.187.187 0 0 1 0-.266l.741-.732a.192.192 0 0 1 .27 0l1.885 1.863 1.886-1.863a.192.192 0 0 1 .269 0l.74.731a.187.187 0 0 1 0 .267l-1.532 1.512h6.47c1.052 0 1.905.843 1.905 1.882V9.3c0 .858-.587 1.608-1.428 1.823v8.056c0 1.558-1.28 2.822-2.857 2.822H6.535c-1.577 0-2.856-1.264-2.856-2.822Zm1.619-7.997v8.075c0 .755.524 1.197 1.255 1.242l.082.002h4.615v-9.319H5.298Zm7.428 0V20.5h4.607c.738 0 1.348-.407 1.39-1.16l.003-.084v-8.075h-6ZM4.155 6.477a.474.474 0 0 0-.473.415l-.003.055V9.3c0 .239.18.44.42.468l.056.003h7.095V6.5l-7.095-.023Zm8.571 0V9.77h7.12a.474.474 0 0 0 .472-.416l.003-.055V6.947a.472.472 0 0 0-.42-.467l-.056-.003h-7.119Z"/>
</svg>
