<svg xmlns="http://www.w3.org/2000/svg" width="24" height="24">
  <path d="M12 1c6.075 0 11 4.925 11 11s-4.925 11-11 11S1 18.075 1 12 5.925 1 12 1Zm-.75 20.22V12H7.196c0 4.733 1.926 8.487 4.054 9.22Zm1.5-9.22v9.22c2.128-.733 4.054-4.488 4.054-9.22H12.75Zm-10.1 0a9.35 9.35 0 0 0 5.108 8.334C6.375 18.317 5.5 15.332 5.5 12H2.65Zm15.85 0c0 3.332-.875 6.317-2.258 8.334A9.35 9.35 0 0 0 21.35 12H18.5ZM7.758 3.665l-.11.058A9.36 9.36 0 0 0 2.77 10.5h2.79c.22-2.72 1.026-5.125 2.198-6.835ZM7.26 10.5h3.989V2.78c-1.897.653-3.635 3.71-3.989 7.72Zm5.49-7.72-.001 7.72h3.989c-.354-4.01-2.091-7.066-3.989-7.72Zm3.491.886.03.043c1.155 1.707 1.95 4.093 2.168 6.791h2.79a9.36 9.36 0 0 0-4.988-6.834Z"/>
</svg>
