<svg xmlns="http://www.w3.org/2000/svg" width="24" height="24">
  <path d="M21.11 10.326c0 1.801-.607 3.46-1.625 4.783a2.355 2.355 0 0 1 2.379 1.529 2.148 2.148 0 0 1-1.151 2.721l-.111.044-6.262 2.317a4.507 4.507 0 0 1-2.601.159l-7.224-1.707H2.202A.202.202 0 0 1 2 19.97v-1.11c0-.112.09-.202.2-.202h2.49l7.393 1.747a3.005 3.005 0 0 0 1.595-.059l.14-.047 6.265-2.318a.631.631 0 0 0 .367-.811.848.848 0 0 0-.943-.54l-.074.017-3.654 1h-4.527a.202.202 0 0 1-.201-.201v-1.111c0-.111.09-.202.201-.202h1.56c.416 0 .753-.34.753-.758a.756.756 0 0 0-.682-.753l-.072-.004H2.202A.202.202 0 0 1 2 14.416v-1.11c0-.112.09-.203.202-.203l3.824.001a7.838 7.838 0 0 1-.505-2.778c0-4.322 3.49-7.826 7.794-7.826 4.304 0 7.794 3.504 7.794 7.826ZM7 10.25c0 .987.229 1.92.636 2.75H12.5v-1h-1.8a.2.2 0 0 1-.2-.2v-1.1c0-.11.09-.2.2-.2h1.8V10h-1.8a.2.2 0 0 1-.2-.2V8.7c0-.11.09-.2.2-.2h1.533l-1.817-1.816a.2.2 0 0 1 0-.282l.778-.779a.2.2 0 0 1 .283 0l1.773 1.773 1.773-1.773a.2.2 0 0 1 .283 0l.778.778a.2.2 0 0 1 0 .283L14.267 8.5H15.8c.11 0 .2.09.2.2v1.1a.2.2 0 0 1-.2.2H14v.5h1.8c.11 0 .2.09.2.2v1.1a.2.2 0 0 1-.2.2H14v1.378A2.248 2.248 0 0 1 14.871 16h.628l.502-.137A6.25 6.25 0 1 0 7 10.25Z"/>
</svg>
