<svg xmlns="http://www.w3.org/2000/svg" width="24" height="24">
  <path d="M3.302 4.365a5.998 5.998 0 0 1 8.374-.312l.157.146.025.025a.2.2 0 0 0 .283 0l.063-.06a6 6 0 0 1 8.494.201c2.402 2.488 2.402 6.52 0 9.007l-7.248 7.506a2 2 0 0 1-2.9 0l-7.248-7.506c-2.403-2.487-2.403-6.52 0-9.007Zm1.087 1.126c-1.77 1.832-1.801 4.783-.095 6.655l.095.1 7.249 7.506a.5.5 0 0 0 .68.042l.044-.042 7.25-7.505c1.8-1.866 1.8-4.89 0-6.756a4.5 4.5 0 0 0-6.427-.098l-.098.098-.93.964a.2.2 0 0 1-.289.002l-1.04-1.051a4.5 4.5 0 0 0-6.44.085Z"/>
</svg>
