<svg xmlns="http://www.w3.org/2000/svg" width="24" height="24">
  <path d="M19.75 6.5a2 2 0 0 1 2 2V19a2 2 0 0 1-2 2h-1.5a2 2 0 0 1-2-2V8.5a2 2 0 0 1 2-2h1.5Zm-7-3.5a2 2 0 0 1 2 2v14a2 2 0 0 1-2 2h-1.5a2 2 0 0 1-2-2V5a2 2 0 0 1 2-2h1.5Zm-7 8.5a2 2 0 0 1 2 2V19a2 2 0 0 1-2 2h-1.5a2 2 0 0 1-2-2v-5.5a2 2 0 0 1 2-2h1.5Zm14-3.5h-1.5a.5.5 0 0 0-.497.442l-.003.058V19a.5.5 0 0 0 .442.497l.058.003h1.5a.5.5 0 0 0 .497-.442L20.25 19V8.5a.5.5 0 0 0-.442-.497L19.75 8Zm-7-3.5h-1.5a.5.5 0 0 0-.497.442L10.75 5v14a.5.5 0 0 0 .442.497l.058.003h1.5a.5.5 0 0 0 .497-.442L13.25 19V5a.5.5 0 0 0-.442-.497L12.75 4.5Zm-7 8.5h-1.5a.5.5 0 0 0-.497.442l-.003.058V19a.5.5 0 0 0 .442.497l.058.003h1.5a.5.5 0 0 0 .497-.442L6.25 19v-5.5a.5.5 0 0 0-.442-.497L5.75 13Z"/>
</svg>
