<svg xmlns="http://www.w3.org/2000/svg" width="24" height="24">
  <path d="M19 4a3 3 0 0 1 2.998 2.888L22 7v3.148c0 7.038-6.768 11.825-13.143 11.315-.256-.022-.365-.103-.38-.367l-.001-.064v-1.545c-3.726-1.372-6.393-5.044-6.474-9.146L2 10.15V7a3 3 0 0 1 2.888-2.998L5 4h14ZM7.109 9.25a.75.75 0 0 0-.75.75c0 2.37 1.602 4.797 4.03 5.516 2.414.715 5.12-.304 6.34-2.104a.75.75 0 1 0-1.241-.842c-.859 1.267-2.896 2.034-4.673 1.508-1.754-.52-2.956-2.34-2.956-4.078a.75.75 0 0 0-.75-.75Zm10.141-.01a.764.764 0 0 0-.75.75c0 .402.331.734.75.75a.764.764 0 0 0 .75-.75.764.764 0 0 0-.75-.75Z"/>
</svg>
