<svg xmlns="http://www.w3.org/2000/svg" width="24" height="24">
  <path d="M19 4a3 3 0 0 1 2.998 2.888L22 7v3.148c0 7.038-6.768 11.825-13.143 11.315-.256-.022-.365-.103-.38-.367l-.001-.064v-1.545c-3.726-1.372-6.393-5.044-6.474-9.146L2 10.15V7a3 3 0 0 1 2.888-2.998L5 4h14Zm0 1.5H5a1.5 1.5 0 0 0-1.497 1.412L3.5 7v3.149c0 3.449 2.185 6.63 5.33 7.868l.164.063.982.361V20h.063c5.46-.104 10.356-4.336 10.46-9.68l.001-.172V7a1.5 1.5 0 0 0-1.412-1.497L19 5.5ZM7.109 9.25a.75.75 0 0 1 .75.75c0 1.737 1.202 3.558 2.956 4.078 1.777.526 3.814-.24 4.673-1.508a.75.75 0 1 1 1.242.842c-1.22 1.8-3.928 2.819-6.341 2.104-2.428-.719-4.03-3.147-4.03-5.516a.75.75 0 0 1 .75-.75Zm10.141-.01c.419.015.75.346.75.75a.764.764 0 0 1-.75.75.764.764 0 0 1-.75-.75c0-.404.331-.735.75-.75Z"/>
</svg>
