<svg xmlns="http://www.w3.org/2000/svg" width="24" height="24">
  <path d="m10.012 2.06 1.854.686c1.494.553 2.284 2.2 1.81 3.726h4.865c1.634 0 2.959 1.346 2.959 3.006 0 .082-.003.164-.01.245l-.646 9.016c-.126 1.56-1.409 2.761-2.949 2.761H4.472c-1.089 0-1.972-.897-1.972-2.004V8.476c0-1.107.883-2.004 1.972-2.004h2.91L8.748 2.66a.982.982 0 0 1 1.264-.6ZM6.738 7.976H4.472a.496.496 0 0 0-.49.443l-.003.058v11.02c0 .257.19.469.436.498l.057.003h2.266a.2.2 0 0 0 .2-.2V8.174a.2.2 0 0 0-.2-.2Zm4.622-3.817-1.201-.444a.2.2 0 0 0-.257.119v.002L8.428 7.942a.2.2 0 0 0-.012.067v11.788c0 .11.09.2.2.2h9.278c.74 0 1.362-.555 1.465-1.291l.01-.09.646-9.015a1.493 1.493 0 0 0-1.387-1.623l-.088-.003h-6.61a.2.2 0 0 1-.191-.259l.525-1.696a1.51 1.51 0 0 0-.824-1.829l-.081-.033Z"/>
</svg>
