<svg xmlns="http://www.w3.org/2000/svg" width="24" height="24">
  <path d="m9.654 11.193.013.008c.083.051.109.16.058.242l-.012.017-.014.016-.498.498-.082.082-.21.21-.053.053a.2.2 0 0 1-.214.045 1.499 1.499 0 0 0-1.522.282l-.064.06-2.119 2.12a1.498 1.498 0 0 0-.06 2.054l.06.064 2.119 2.119a1.498 1.498 0 0 0 2.055.06l.064-.06 2.119-2.119a1.49 1.49 0 0 0 .436-1.061.2.2 0 0 1 .059-.14l.987-.987a.156.156 0 0 1 .256.053l.017.046a2.997 2.997 0 0 1-.696 3.148l-2.119 2.12a2.996 2.996 0 0 1-4.237 0l-2.12-2.12a2.997 2.997 0 0 1 0-4.237l2.12-2.12a2.998 2.998 0 0 1 3.657-.453Zm5.136-2.406.777.776a.2.2 0 0 1 0 .283l-5.721 5.72a.2.2 0 0 1-.283 0l-.776-.776a.2.2 0 0 1 0-.283l5.72-5.72a.2.2 0 0 1 .283 0Zm3.213-4.91 2.12 2.12a2.996 2.996 0 0 1 0 4.237l-2.12 2.12a2.997 2.997 0 0 1-3.213.67.143.143 0 0 1-.08-.187l.014-.025.018-.022.42-.42.177-.177.226-.225.064-.064.114-.115a.2.2 0 0 1 .14-.059 1.491 1.491 0 0 0 .997-.376l.064-.06 2.119-2.12a1.498 1.498 0 0 0 .06-2.054l-.06-.064-2.119-2.119a1.498 1.498 0 0 0-2.055-.06l-.064.06-2.119 2.119a1.498 1.498 0 0 0-.342 1.586.2.2 0 0 1-.045.214l-.249.248-.125.126-.225.225-.175.174-.094.095a.148.148 0 0 1-.23-.026l-.009-.013a2.998 2.998 0 0 1 .435-3.688l2.119-2.12a2.997 2.997 0 0 1 4.237 0Z"/>
</svg>
