<svg xmlns="http://www.w3.org/2000/svg" width="24" height="24">
  <path d="m13.53 3.165 7.282 15.94c.463 1.014.042 2.223-.941 2.701a1.914 1.914 0 0 1-1.705-.014l-5.983-3.025a.957.957 0 0 0-.866 0l-5.984 3.025c-.975.494-2.154.078-2.632-.928a2.086 2.086 0 0 1-.013-1.758L9.97 3.165c.463-1.014 1.635-1.449 2.618-.971a2 2 0 0 1 .941.97Zm-1.335.648a.484.484 0 0 0-.862-.052l-.028.052-7.283 15.941a.522.522 0 0 0 .004.44c.11.233.373.34.605.255l.053-.023 5.983-3.025a2.391 2.391 0 0 1 2.05-.054l.115.054 5.984 3.025c.134.068.29.07.426.004a.513.513 0 0 0 .257-.62l-.022-.056-7.282-15.94Z"/>
</svg>
