<svg xmlns="http://www.w3.org/2000/svg" width="24" height="24">
  <path d="M12 2c3.314 0 6 2.681 6 5.988v3.033h.5c1.105 0 2 .894 2 1.996v6.987a1.998 1.998 0 0 1-2 1.996h-13c-1.105 0-2-.894-2-1.996v-6.987c0-1.102.895-1.996 2-1.996H6V7.988C6 4.681 8.686 2 12 2Zm6.5 10.518h-13a.5.5 0 0 0-.497.441L5 13.017v6.987a.5.5 0 0 0 .442.495l.058.004h13a.5.5 0 0 0 .497-.441l.003-.058v-6.987a.5.5 0 0 0-.442-.495l-.058-.004ZM13 15.175v2.594a.2.2 0 0 1-.2.2h-1.1a.2.2 0 0 1-.2-.2v-2.594c0-.11.09-.2.2-.2h1.1c.11 0 .2.09.2.2ZM12 3.497a4.496 4.496 0 0 0-4.498 4.36l-.002.131v2.995h9V7.988A4.495 4.495 0 0 0 12.133 3.5L12 3.497Z"/>
</svg>
