<svg xmlns="http://www.w3.org/2000/svg" width="24" height="24">
  <path d="M12 2c3.401 0 6.158 2.771 6.158 6.19v2.858A2.85 2.85 0 0 1 21 13.905v5.238A2.85 2.85 0 0 1 18.158 22H5.842A2.85 2.85 0 0 1 3 19.143v-5.238a2.85 2.85 0 0 1 2.842-2.857V8.19C5.842 4.771 8.6 2 12 2Zm.758 12.857h-1.042a.19.19 0 0 0-.19.19v2.477c0 .105.086.19.19.19h1.042a.19.19 0 0 0 .19-.19v-2.476a.19.19 0 0 0-.19-.19ZM12 3.43c-2.572 0-4.665 2.06-4.735 4.628l-.002.133v2.858h9.474V8.19c0-2.585-2.05-4.69-4.604-4.76H12Z"/>
</svg>
