<svg xmlns="http://www.w3.org/2000/svg" width="24" height="24">
  <path d="M22.5 12c0 4.544-3.358 8.307-7.734 8.95l.89.888a.095.095 0 0 1-.068.162h-1.6a.192.192 0 0 1-.135-.056l-2.168-2.163a.095.095 0 0 1 .068-.162h1.679c4.217 0 7.636-3.411 7.636-7.62 0-3.861-2.88-7.052-6.613-7.55l-1.076-1.074c-.03-.028-.058-.057-.086-.086a.197.197 0 0 1 .139-.337C18.44 2.952 22.5 7.003 22.5 12ZM2.932 12c0 3.862 2.88 7.052 6.613 7.551.463.462.81.807 1.04 1.038l.116.115a.2.2 0 0 1-.142.342l-.292-.003C5.398 20.884 1.5 16.896 1.5 12c0-4.545 3.358-8.307 7.734-8.95l-.89-.888A.095.095 0 0 1 8.413 2h1.6c.05 0 .099.02.135.056l2.168 2.163a.095.095 0 0 1-.068.162h-1.679c-4.217 0-7.636 3.41-7.636 7.619Z"/>
</svg>
