<svg xmlns="http://www.w3.org/2000/svg" width="24" height="24">
  <path d="M18 2a2 2 0 0 1 1.971 1.66l.105.039.125.051.15.07.11.06.144.085.13.087.09.066.105.085.117.104.127.126.13.147.095.118.098.14.078.122.072.127.052.102.045.097.062.15A2.943 2.943 0 0 1 22 6.5V19a3 3 0 0 1-3 3H5a3 3 0 0 1-3-3V6.5a3.038 3.038 0 0 1 .095-.75l.024-.09.034-.108.034-.098.045-.114.054-.12.07-.138.082-.144.095-.145.083-.115.067-.084.104-.12.135-.138.084-.078.096-.082.116-.09.066-.047.127-.084.153-.09.1-.052.111-.053.132-.055.122-.044A2 2 0 0 1 6 2h12Zm2.5 17V8.25l-8.41 4.205a.2.2 0 0 1-.18 0L3.5 8.25V19a1.5 1.5 0 0 0 1.412 1.497L5 20.5h14a1.5 1.5 0 0 0 1.497-1.412L20.5 19ZM18 3.5H6a.5.5 0 0 0-.497.442L5.5 4v3.45a.2.2 0 0 0 .11.178l6.3 3.15a.2.2 0 0 0 .18 0l6.3-3.15a.2.2 0 0 0 .11-.18V4a.5.5 0 0 0-.442-.497L18 3.5ZM4 5.382l-.03.028-.093.095-.062.075-.07.098-.054.09-.046.088-.014.029-.037.09-.03.093a1.492 1.492 0 0 0-.061.344L3.5 6.5v.073l.5.25v-1.44Zm16 1.44.5-.25V6.5l-.002-.085-.008-.084-.01-.079-.02-.095-.024-.094-.023-.07-.026-.065-.032-.072-.047-.09-.051-.085-.049-.07-.059-.075-.032-.038-.063-.065-.053-.05L20 6.822Z"/>
</svg>
