<svg xmlns="http://www.w3.org/2000/svg" width="24" height="24">
  <path d="M11.5 1.5C17.299 1.5 22 6.201 22 12c0 2.862-1.145 5.456-3.002 7.35h-2.434a8.925 8.925 0 1 0-5.064 1.575H22V22.5H11.5C5.701 22.5 1 17.799 1 12S5.701 1.5 11.5 1.5Zm0 13a2.5 2.5 0 1 1 0 5 2.5 2.5 0 0 1 0-5Zm0 1.5a1 1 0 1 0 0 2 1 1 0 0 0 0-2Zm-5-6.5a2.5 2.5 0 1 1 0 5 2.5 2.5 0 0 1 0-5Zm10 0a2.5 2.5 0 1 1 0 5 2.5 2.5 0 0 1 0-5ZM6.5 11a1 1 0 1 0 0 2 1 1 0 0 0 0-2Zm10 0a1 1 0 1 0 0 2 1 1 0 0 0 0-2Zm-5-6.5a2.5 2.5 0 1 1 0 5 2.5 2.5 0 0 1 0-5Zm0 1.5a1 1 0 1 0 0 2 1 1 0 0 0 0-2Z"/>
</svg>
