<svg xmlns="http://www.w3.org/2000/svg" width="24" height="24">
  <path d="M12 1c6.075 0 11 4.925 11 11s-4.925 11-11 11S1 18.075 1 12 5.925 1 12 1Zm0 1.5a9.5 9.5 0 1 0 0 19 9.5 9.5 0 0 0 0-19Zm2.74 3.827.038.016.948.546.033.024a.2.2 0 0 1 .057.212l-.017.037-2.522 4.357h2.273c.11 0 .2.09.2.2v1.096a.2.2 0 0 1-.2.2h-2.8v.998h2.8c.11 0 .2.09.2.2v1.096a.2.2 0 0 1-.2.2h-2.8V17.8a.2.2 0 0 1-.2.2h-1.1a.2.2 0 0 1-.2-.2v-2.291h-2.8a.2.2 0 0 1-.2-.2v-1.096c0-.11.09-.2.2-.2h2.8v-.998h-2.8a.2.2 0 0 1-.2-.2V11.72c0-.11.09-.2.2-.2h2.214l-2.52-4.357a.2.2 0 0 1 .072-.273l.949-.546a.2.2 0 0 1 .272.074l2.534 4.377 2.534-4.377a.2.2 0 0 1 .236-.09Z"/>
</svg>
