<svg xmlns="http://www.w3.org/2000/svg" width="24" height="24">
  <path d="M18.917 2a2.857 2.857 0 0 1 2.857 2.857v14.286A2.857 2.857 0 0 1 18.917 22H6.536a2.857 2.857 0 0 1-2.857-2.857v-.953H2.44a.19.19 0 0 1-.19-.19v-1.048c0-.104.086-.19.19-.19h1.24v-4.286H2.44a.19.19 0 0 1-.19-.19v-1.048a.19.19 0 0 1 .19-.19h1.24V6.762H2.44a.19.19 0 0 1-.19-.19V5.523a.19.19 0 0 1 .19-.19h1.24v-.477A2.857 2.857 0 0 1 6.536 2h12.38Zm-9.13 5c-.27 0-.525.117-.736.319l-.826.823a1.634 1.634 0 0 0-.49 1.04c-.041.527.059 1.08.307 1.741.386 1.036.968 2 1.823 3.024A11.2 11.2 0 0 0 13.6 16.86c.763.361 1.392.568 2.077.612l.127.005c.539 0 .968-.18 1.313-.55.047-.057.296-.31.746-.76.45-.466.454-1.049.002-1.499l-1.37-1.361c-.197-.183-.423-.294-.686-.294-.274 0-.528.124-.74.334l-.826.822-.066-.039-.09-.048-.198-.1a1.652 1.652 0 0 1-.15-.085c-.73-.46-1.389-1.057-2.017-1.828l-.107-.137c-.16-.21-.357-.54-.592-.988l.822-.802c.218-.217.346-.47.346-.746 0-.277-.128-.53-.348-.748l-1.33-1.325A1.023 1.023 0 0 0 9.786 7Z"/>
</svg>
