<svg xmlns="http://www.w3.org/2000/svg" width="24" height="24">
  <path d="M7.588 15.972c-3.54-3.598-5.401-6.94-5.584-10.027a2.433 2.433 0 0 1 .709-1.864l1.725-1.725a1.217 1.217 0 0 1 1.72 0L8.74 4.937a1.217 1.217 0 0 1 0 1.72L7.083 8.315a.608.608 0 0 0-.124.683c.928 2.035 1.993 3.653 3.192 4.852 1.2 1.2 2.817 2.264 4.853 3.192a.608.608 0 0 0 .682-.124l1.657-1.656a1.217 1.217 0 0 1 1.72 0l2.58 2.58a1.217 1.217 0 0 1 0 1.721l-1.724 1.725c-.491.492-1.17.75-1.864.709-3.15-.186-6.566-2.12-10.248-5.803l-.219-.22Z"/>
</svg>
