<svg xmlns="http://www.w3.org/2000/svg" width="24" height="24">
  <path d="M21.5 4.218v15.564c0 1.501-1.203 2.718-2.686 2.718H6.686C5.203 22.5 4 21.283 4 19.782V4.218C4 2.717 5.203 1.5 6.686 1.5h12.128c1.483 0 2.686 1.217 2.686 2.718ZM2.7 6h1.6c.11 0 .2.09.2.2v1.1a.2.2 0 0 1-.2.2H2.7a.2.2 0 0 1-.2-.2V6.2c0-.11.09-.2.2-.2Zm0 5h1.6c.11 0 .2.09.2.2v1.1a.2.2 0 0 1-.2.2H2.7a.2.2 0 0 1-.2-.2v-1.1c0-.11.09-.2.2-.2Zm0 5h1.6c.11 0 .2.09.2.2v1.1a.2.2 0 0 1-.2.2H2.7a.2.2 0 0 1-.2-.2v-1.1c0-.11.09-.2.2-.2ZM6.875 3c-.728 0-1.33.773-1.373 1.5v15.125c0 .728.774 1.332 1.5 1.375h11.206c.728 0 1.75-.648 1.792-1.375V4.5c0-.728-.568-1.457-1.294-1.5H6.875Zm5.016 4.523.017.014.13.127.352.354.576.574c.35.35.574.791.574 1.311 0 .52-.223.96-.574 1.31l-.128.128.097.126c.36.44.725.796 1.12 1.086l.025.018.135-.134c.32-.32.728-.529 1.191-.557l.109-.003c.562 0 .998.246 1.325.596l1.052 1.045c.732.728.748 1.773.098 2.517l-.07.075a7.269 7.269 0 0 1-.288.287l-.107.105c-.04.039-.08.078-.117.119l-.102.114a2.364 2.364 0 0 1-1.781.765h-.043l-.138-.006c-.712-.046-1.331-.25-2.065-.597a10.15 10.15 0 0 1-3.384-2.638c-.768-.92-1.302-1.804-1.657-2.759-.25-.666-.358-1.26-.31-1.86.047-.553.29-1.071.687-1.46l.688-.685a1.845 1.845 0 0 1 1.285-.537c.506 0 .958.216 1.303.565Zm-1.635.963-.671.668a.948.948 0 0 0-.287.61c-.029.361.041.758.227 1.252.3.805.753 1.555 1.426 2.362a8.772 8.772 0 0 0 2.925 2.28c.413.196.964.426 1.556.463l.093.004c.32 0 .567-.104.775-.327.12-.142.25-.267.377-.39l.124-.118.116-.12c.22-.228.222-.462.005-.677l-1.12-1.114a.43.43 0 0 0-.287-.127.478.478 0 0 0-.33.16l-.676.671a.38.38 0 0 1-.268.123.378.378 0 0 1-.175-.045l-.082-.048a3.228 3.228 0 0 0-.137-.071l-.079-.04a1.734 1.734 0 0 1-.159-.09c-.628-.396-1.198-.912-1.74-1.576-.3-.377-.494-.693-.633-1.025l-.016-.048a.342.342 0 0 1 .101-.365l.178-.164c.11-.106.217-.214.33-.327l.167-.168c.112-.112.17-.225.17-.336 0-.112-.058-.225-.17-.336l-.538-.535-.188-.19-.238-.24-.12-.112a.462.462 0 0 0-.324-.157.49.49 0 0 0-.332.153Z"/>
</svg>
