<svg xmlns="http://www.w3.org/2000/svg" width="24" height="24">
  <path d="M13.3 20.5c.11 0 .2.09.2.2v1.1a.2.2 0 0 1-.2.2H5a3 3 0 0 1-3-3V5a3 3 0 0 1 3-3h14a3 3 0 0 1 3 3v8.796a.2.2 0 0 1-.2.2h-1.1a.2.2 0 0 1-.2-.2V5a1.5 1.5 0 0 0-1.412-1.497L19 3.5H5a1.5 1.5 0 0 0-1.497 1.412L3.5 5v14a1.5 1.5 0 0 0 1.412 1.497L5 20.5h8.3Zm7.036-4.867.778.777a.2.2 0 0 1 0 .283l-1.662 1.661a.2.2 0 0 0 0 .283l1.662 1.661a.2.2 0 0 1 0 .283l-.778.778a.2.2 0 0 1-.283 0l-1.662-1.662a.2.2 0 0 0-.283 0l-1.661 1.662a.2.2 0 0 1-.283 0l-.778-.778a.2.2 0 0 1 0-.283l1.662-1.661a.2.2 0 0 0 0-.283l-1.662-1.661a.2.2 0 0 1 0-.283l.778-.777a.2.2 0 0 1 .283 0l1.662 1.66a.2.2 0 0 0 .282 0l1.662-1.66a.2.2 0 0 1 .283 0ZM6.5 20.5l7.813-7.814a2 2 0 0 1 2.829 0l.968.97a.2.2 0 0 1-.14.34h-1.645a.938.938 0 0 0-1.21.013l-.05.047-6.385 6.385a.2.2 0 0 1-.142.059H6.5ZM8 6a2.5 2.5 0 1 1 0 5 2.5 2.5 0 0 1 0-5Zm0 1.5a1 1 0 1 0 0 2 1 1 0 0 0 0-2Z"/>
</svg>
