<svg xmlns="http://www.w3.org/2000/svg" width="24" height="24">
  <path d="M16 5a3 3 0 0 1 3 3v11a3 3 0 0 1-3 3H5a3 3 0 0 1-3-3V8a3 3 0 0 1 3-3h11Zm0 1.5H5a1.5 1.5 0 0 0-1.497 1.412L3.5 8v11a1.5 1.5 0 0 0 1.412 1.497L5 20.5h11a1.5 1.5 0 0 0 1.497-1.412L17.5 19v-2.334l-2.11-2.11a.938.938 0 0 0-1.274-.047l-.051.047-5.66 5.66-.284.284H6l7.313-7.314a2 2 0 0 1 2.829 0l1.358 1.358V8a1.5 1.5 0 0 0-1.412-1.497L16 6.5ZM19 2a3 3 0 0 1 3 3v12h-1.5V5a1.5 1.5 0 0 0-1.412-1.497L19 3.5H7V2h12ZM7.25 8a2.25 2.25 0 1 1 0 4.5 2.25 2.25 0 0 1 0-4.5Zm0 1.5a.75.75 0 1 0 0 1.5.75.75 0 0 0 0-1.5Z"/>
</svg>
