<svg xmlns="http://www.w3.org/2000/svg" width="24" height="24">
  <path d="M18 2a3 3 0 0 1 3 3v12.857l1.5-.357V19L12 21.5 1.5 19v-1.5l1.5.357V5a3 3 0 0 1 3-3h12Zm0 1.5H6a1.5 1.5 0 0 0-1.497 1.412L4.5 5v13.215L12 20l7.5-1.785V5a1.5 1.5 0 0 0-1.412-1.497L18 3.5Zm-3.26 2.327.038.016.948.546.033.024a.2.2 0 0 1 .057.212l-.017.037-2.522 4.357h2.273c.11 0 .2.09.2.2v1.096a.2.2 0 0 1-.2.2h-2.8v.998h2.8c.11 0 .2.09.2.2v1.096a.2.2 0 0 1-.2.2h-2.8V17.3a.2.2 0 0 1-.2.2h-1.1a.2.2 0 0 1-.2-.2v-2.291h-2.8a.2.2 0 0 1-.2-.2v-1.096c0-.11.09-.2.2-.2h2.8v-.998h-2.8a.2.2 0 0 1-.2-.2V11.22c0-.11.09-.2.2-.2h2.214l-2.52-4.357a.2.2 0 0 1 .072-.273l.949-.546a.2.2 0 0 1 .272.074l2.534 4.377 2.534-4.377a.2.2 0 0 1 .236-.09Z"/>
</svg>
