<svg xmlns="http://www.w3.org/2000/svg" width="24" height="24">
  <path d="m2.341 9.341 2.1 2.1a.2.2 0 0 1 .059.142v1.434a.2.2 0 0 1-.341.142L3.5 12.5V19a1.5 1.5 0 0 0 1.412 1.497L5 20.5h14a1.5 1.5 0 0 0 1.497-1.412L20.5 19v-3.017a.2.2 0 0 1 .341-.142l1.1 1.1a.2.2 0 0 1 .059.142V19a3 3 0 0 1-3 3H5a3 3 0 0 1-3-3V9.483a.2.2 0 0 1 .341-.142Zm12.284-3.33.036.016.949.545.033.024a.2.2 0 0 1 .056.213l-.016.037-2.522 4.356h2.273c.11 0 .2.09.2.2V12.5a.2.2 0 0 1-.2.2h-2.8v.997h2.8c.11 0 .2.09.2.2v1.096a.2.2 0 0 1-.2.2h-2.8v2.291a.2.2 0 0 1-.2.2h-1.1a.2.2 0 0 1-.2-.2v-2.291h-2.8a.2.2 0 0 1-.2-.2v-1.096c0-.11.09-.2.2-.2h2.8v-.998h-2.8a.2.2 0 0 1-.2-.2v-1.096c0-.11.09-.2.2-.2h2.214L8.027 6.846a.2.2 0 0 1 .04-.25l.033-.024.948-.545a.2.2 0 0 1 .273.073l2.534 4.377L14.389 6.1a.2.2 0 0 1 .236-.09ZM19 2c1.657 0 3 1.843 3 3.5v9.017a.2.2 0 0 1-.341.142l-2.1-2.1a.2.2 0 0 1-.059-.142v-1.434a.2.2 0 0 1 .341-.142l.659.659v-6c0-.799-.625-1.952-1.412-1.997L19 3.5H5c-.799 0-1.452 1.124-1.497 1.912L3.5 5.5v2.517a.2.2 0 0 1-.341.142l-1.1-1.1A.2.2 0 0 1 2 6.917V5.5C2 3.843 3.343 2 5 2h14Z"/>
</svg>
