<svg xmlns="http://www.w3.org/2000/svg" width="24" height="24">
  <path d="m5.16 2.338-1.1 1.089a.2.2 0 0 0-.06.142v2.828c0 .41.333.743.743.743h2.864a.2.2 0 0 0 .141-.058l1.096-1.086a.2.2 0 0 0-.14-.342H6.521A8.515 8.515 0 0 1 12 3.673c4.695 0 8.501 3.77 8.501 8.42 0 4.651-3.806 8.421-8.5 8.421-4.446 0-8.094-3.381-8.468-7.69a10.02 10.02 0 0 1-.027-.537.2.2 0 0 0-.2-.194H2.204a.2.2 0 0 0-.2.205c.005.2.011.357.019.47C2.373 17.925 6.706 22 12 22c5.523 0 10-4.435 10-9.907 0-5.47-4.477-9.906-10-9.906a10.017 10.017 0 0 0-6.5 2.378V2.48a.2.2 0 0 0-.34-.142Z"/>
</svg>
