<svg xmlns="http://www.w3.org/2000/svg" width="24" height="24">
  <path d="M3.3 16c.11 0 .2.09.2.2V19a1.5 1.5 0 0 0 1.412 1.497L5 20.5h2.8c.11 0 .2.09.2.2v1.1a.2.2 0 0 1-.2.2H5a3 3 0 0 1-3-3v-2.8c0-.11.09-.2.2-.2h1.1Zm18.5 0c.11 0 .2.09.2.2V19a3 3 0 0 1-3 3h-2.8a.2.2 0 0 1-.2-.2v-1.1c0-.11.09-.2.2-.2H19a1.5 1.5 0 0 0 1.497-1.412L20.5 19v-2.8c0-.11.09-.2.2-.2h1.1Zm0-4.5c.11 0 .2.09.2.2v1.1a.2.2 0 0 1-.2.2H2.2a.2.2 0 0 1-.2-.2v-1.1c0-.11.09-.2.2-.2h19.6ZM19 2a3 3 0 0 1 3 3v2.8a.2.2 0 0 1-.2.2h-1.1a.2.2 0 0 1-.2-.2V5a1.5 1.5 0 0 0-1.412-1.497L19 3.5h-2.8a.2.2 0 0 1-.2-.2V2.2c0-.11.09-.2.2-.2H19ZM7.8 2c.11 0 .2.09.2.2v1.1a.2.2 0 0 1-.2.2H5a1.5 1.5 0 0 0-1.497 1.412L3.5 5v2.8a.2.2 0 0 1-.2.2H2.2a.2.2 0 0 1-.2-.2V5a3 3 0 0 1 3-3h2.8Z"/>
</svg>
