<svg xmlns="http://www.w3.org/2000/svg" width="24" height="24">
  <path d="M3.5 16.2V19a1.5 1.5 0 0 0 1.412 1.497L5 20.5h2.8c.11 0 .2.09.2.2v1.1a.2.2 0 0 1-.2.2H5a3 3 0 0 1-3-3v-2.8c0-.11.09-.2.2-.2h1.1c.11 0 .2.09.2.2Zm18.5 0V19a3 3 0 0 1-3 3h-2.8a.2.2 0 0 1-.2-.2v-1.1c0-.11.09-.2.2-.2H19a1.5 1.5 0 0 0 1.497-1.412L20.5 19v-2.8c0-.11.09-.2.2-.2h1.1c.11 0 .2.09.2.2ZM7.88 14.66l.026.117a4.206 4.206 0 0 0 3.945 3.221l.13.002.128-.001a4.211 4.211 0 0 0 4.01-3.339.2.2 0 0 1 .196-.16h1.142a.181.181 0 0 1 .18.21 5.711 5.711 0 0 1-5.49 4.788L12 19.5a5.711 5.711 0 0 1-5.64-4.81.166.166 0 0 1 .165-.19h1.16a.2.2 0 0 1 .196.16ZM2 12.8v-1.1c0-.11.09-.2.2-.2h3.733l-.008-.061a6.129 6.129 0 1 1 12.173-.202l-.031.263H21.8c.11 0 .2.09.2.2v1.1a.2.2 0 0 1-.2.2H2.2a.2.2 0 0 1-.2-.2ZM12 6a4.628 4.628 0 0 0-4.604 5.107l.016.133.034.26h9.107l.035-.26A4.629 4.629 0 0 0 12 6Zm7-4a3 3 0 0 1 3 3v2.8a.2.2 0 0 1-.2.2h-1.1a.2.2 0 0 1-.2-.2V5a1.5 1.5 0 0 0-1.412-1.497L19 3.5h-2.8a.2.2 0 0 1-.2-.2V2.2c0-.11.09-.2.2-.2H19ZM8 2.2v1.1a.2.2 0 0 1-.2.2H5a1.5 1.5 0 0 0-1.497 1.412L3.5 5v2.8a.2.2 0 0 1-.2.2H2.2a.2.2 0 0 1-.2-.2V5a3 3 0 0 1 3-3h2.8c.11 0 .2.09.2.2Z"/>
</svg>
