<svg xmlns="http://www.w3.org/2000/svg" width="24" height="24">
  <path d="M12.5 2.2v1.1a.2.2 0 0 1-.2.2H5a1.5 1.5 0 0 0-1.497 1.412L3.5 5v14a1.5 1.5 0 0 0 1.412 1.497L5 20.5h14a1.5 1.5 0 0 0 1.497-1.412L20.5 19v-7.3a.2.2 0 0 1 .2-.2h1.1a.2.2 0 0 0 .2-.2V8.7a.2.2 0 0 0-.2-.2h-1.1a.2.2 0 0 1-.2-.2V4.457l-7.217 7.217a.2.2 0 0 1-.283 0l-.778-.777a.2.2 0 0 1 0-.283L19.335 3.5H15.7a.2.2 0 0 1-.2-.2V2.2c0-.11.09-.2.2-.2h5.55a.75.75 0 0 1 .75.75V19a3 3 0 0 1-3 3H5a3 3 0 0 1-3-3V5a3 3 0 0 1 3-3h7.3c.11 0 .2.09.2.2Z"/>
</svg>
