<svg xmlns="http://www.w3.org/2000/svg" width="24" height="24">
  <path d="m14.832 2.047.041.012a9.929 9.929 0 0 1 4.215 2.622.2.2 0 0 1 .031.233 3.21 3.21 0 0 0 .026 3.064 2.988 2.988 0 0 0 2.42 1.55.2.2 0 0 1 .185.156l.023.105c.149.712.227 1.45.227 2.208 0 .959-.125 1.887-.36 2.768l-.023.084a.2.2 0 0 1-.173.146 2.99 2.99 0 0 0-2.299 1.54 3.207 3.207 0 0 0-.179 2.73.2.2 0 0 1-.044.216 9.899 9.899 0 0 1-4.385 2.55.2.2 0 0 1-.21-.07A2.946 2.946 0 0 0 12 20.813a2.943 2.943 0 0 0-2.327 1.148.2.2 0 0 1-.21.07l-.258-.073a9.9 9.9 0 0 1-4.128-2.476.2.2 0 0 1-.044-.216l.034-.09a3.205 3.205 0 0 0-.213-2.642 2.997 2.997 0 0 0-2.102-1.513 3.07 3.07 0 0 0-.197-.026.2.2 0 0 1-.172-.145c-.01-.038-.02-.07-.026-.096A10.726 10.726 0 0 1 2 11.997c0-.794.086-1.567.249-2.31v-.003a.2.2 0 0 1 .185-.156l.05-.004a2.987 2.987 0 0 0 2.371-1.546 3.21 3.21 0 0 0 .024-3.064.2.2 0 0 1 .033-.232l.164-.169a9.93 9.93 0 0 1 4.093-2.466.2.2 0 0 1 .234.095c.039.07.072.127.098.168.538.838 1.456 1.39 2.499 1.39 1.089 0 2.042-.602 2.568-1.502l.03-.055a.2.2 0 0 1 .234-.096Zm.314 1.879A4.412 4.412 0 0 1 12 5.255a4.41 4.41 0 0 1-3.115-1.299l-.028-.029a.178.178 0 0 0-.199-.04 8.436 8.436 0 0 0-1.93 1.194l-.035.029a.2.2 0 0 0-.064.202v.001a4.815 4.815 0 0 1-.397 3.296l-.078.146a4.532 4.532 0 0 1-2.466 2.092.2.2 0 0 0-.138.186c-.024.23-.04.463-.046.697l-.004.267c0 .484.037.962.111 1.43l.019.11a.2.2 0 0 0 .129.153l.093.035a4.53 4.53 0 0 1 2.223 1.895l.08.136c.517.93.7 1.99.555 3.011v.004a.2.2 0 0 0 .07.184l.02.016a8.393 8.393 0 0 0 2.249 1.295.2.2 0 0 0 .196-.032 4.39 4.39 0 0 1 2.601-.974l.154-.003c1.027 0 1.998.36 2.776.994l.005.004a.14.14 0 0 0 .138.024 8.392 8.392 0 0 0 2.301-1.325.2.2 0 0 0 .071-.184 4.805 4.805 0 0 1 .478-2.87l.077-.144a4.536 4.536 0 0 1 2.33-2.041l.065-.024a.2.2 0 0 0 .129-.154l.019-.109a9.18 9.18 0 0 0 .107-1.142l.004-.29a9.09 9.09 0 0 0-.052-.979v-.001a.2.2 0 0 0-.139-.17 4.523 4.523 0 0 1-2.383-1.952l-.08-.139a4.811 4.811 0 0 1-.475-3.442v-.002a.2.2 0 0 0-.064-.201l-.034-.028a8.434 8.434 0 0 0-1.931-1.194l-.004-.002a.172.172 0 0 0-.192.04ZM12 8.366c1.933 0 3.5 1.626 3.5 3.63 0 2.005-1.567 3.63-3.5 3.63s-3.5-1.625-3.5-3.63c0-2.004 1.567-3.63 3.5-3.63Zm0 1.556c-1.105 0-2 .929-2 2.075 0 1.145.895 2.074 2 2.074s2-.929 2-2.074c0-1.146-.895-2.075-2-2.075Z"/>
</svg>
