<svg xmlns="http://www.w3.org/2000/svg" width="24" height="24">
  <path d="M18.5 2a3 3 0 0 1 3 3v14a3 3 0 0 1-3 3h-13a3 3 0 0 1-3-3V5a3 3 0 0 1 3-3h13ZM20 18H4v1a1.5 1.5 0 0 0 1.412 1.497l.088.003h13a1.5 1.5 0 0 0 1.497-1.412L20 19v-1ZM18.5 3.5h-13a1.5 1.5 0 0 0-1.497 1.412L4 5v11.5h16V5a1.5 1.5 0 0 0-1.412-1.497L18.5 3.5ZM9.692 6c.1 0 .183.082.183.183v1.192c0 1.227.966 2.236 2.192 2.29l.1.002a2.292 2.292 0 0 0 2.29-2.193l.001-.099V6.183c0-.1.083-.183.184-.183h1.008c.1 0 .183.082.183.183v1.192a3.667 3.667 0 0 1-7.333 0V6.183c0-.1.082-.183.183-.183h1.009Z"/>
</svg>
