<svg xmlns="http://www.w3.org/2000/svg" width="24" height="24">
  <path d="m18.44 12.59 1.06 1.09a.2.2 0 0 1-.143.339h-4.63l5.637 5.788a.2.2 0 0 1 0 .28l-.747.766a.2.2 0 0 1-.286 0l-5.588-5.737v4.411a.2.2 0 0 1-.343.14l-1.05-1.08a.2.2 0 0 1-.057-.139V14.02c0-.822.648-1.49 1.447-1.49h4.556a.2.2 0 0 1 .143.061ZM4.67 3.147l5.67 5.822V4.765a.2.2 0 0 1 .343-.14l1.065 1.094a.2.2 0 0 1 .056.14v4.163c0 .831-.654 1.505-1.46 1.505H5.557a.2.2 0 0 1-.143-.061l-1.076-1.104a.2.2 0 0 1 .143-.34h4.831l-5.677-5.83a.2.2 0 0 1 0-.278l.747-.767a.2.2 0 0 1 .286 0Z"/>
</svg>
