<svg xmlns="http://www.w3.org/2000/svg" width="24" height="24">
  <path d="M12 1c6.075 0 11 4.925 11 11s-4.925 11-11 11S1 18.075 1 12 5.925 1 12 1Zm0 1.5a9.5 9.5 0 1 0 0 19 9.5 9.5 0 0 0 0-19ZM7.023 13.259a.132.132 0 0 1 .184-.034l.04.028A8.46 8.46 0 0 0 12 14.704a8.46 8.46 0 0 0 4.751-1.45l.028-.015a.16.16 0 0 1 .221.147v1.364a.2.2 0 0 1-.102.174l-.172.095A9.955 9.955 0 0 1 12 16.204a9.955 9.955 0 0 1-4.899-1.28A.2.2 0 0 1 7 14.75v-1.416l.002-.027a.133.133 0 0 1 .02-.048ZM8 9a1 1 0 1 1 0 2 1 1 0 0 1 0-2Zm8 0a1 1 0 1 1 0 2 1 1 0 0 1 0-2Z"/>
</svg>
