<svg xmlns="http://www.w3.org/2000/svg" width="24" height="24">
  <path d="M12 1c6.075 0 11 4.925 11 11s-4.925 11-11 11S1 18.075 1 12 5.925 1 12 1ZM7.207 13.225a.132.132 0 0 0-.205.082L7 13.334v1.416l.004.042a.2.2 0 0 0 .097.132l.13.072A9.955 9.955 0 0 0 12 16.204a9.955 9.955 0 0 0 4.898-1.28.2.2 0 0 0 .102-.174v-1.364l-.004-.037a.16.16 0 0 0-.217-.11l-.028.015-.17.112A8.46 8.46 0 0 1 12 14.704a8.46 8.46 0 0 1-4.793-1.48ZM8 9a1 1 0 1 0 0 2 1 1 0 0 0 0-2Zm8 0a1 1 0 1 0 0 2 1 1 0 0 0 0-2Z"/>
</svg>
