<svg xmlns="http://www.w3.org/2000/svg" width="24" height="24">
  <path d="M3.971 4.226c.056 0 .108.02.147.056l17.24 15.906a.182.182 0 0 1 0 .271.216.216 0 0 1-.147.056h-1.615a.217.217 0 0 1-.147-.056l-4.612-4.256v2.102c0 1.059-.93 1.917-2.077 1.917a2.21 2.21 0 0 1-1.069-.274L7.523 17.64H4.971c-1.147 0-2.077-.857-2.077-1.916V8.06c0-.754.478-1.437 1.222-1.747L2.21 4.553a.181.181 0 0 1 0-.27.217.217 0 0 1 .147-.057h1.615Zm16.482.908v.002a15.194 15.194 0 0 1 1.696 6.972 15.144 15.144 0 0 1-1.16 5.822l-1.22-1.125a13.852 13.852 0 0 0-.719-11.044c-.048-.095-.005-.208.097-.254l.348-.157.395-.176.285-.129a.216.216 0 0 1 .277.089ZM17.65 6.393v.001a12.51 12.51 0 0 1 .87 9.258l-1.295-1.194a11.173 11.173 0 0 0-.978-7.439c-.049-.095-.006-.208.097-.254l.182-.081.666-.3.18-.08a.216.216 0 0 1 .277.088Zm-3.11-1.947a1.8 1.8 0 0 1 .296.986v6.822l-6.915-6.38 3.77-2.086c.983-.544 2.259-.25 2.85.658Z"/>
</svg>
