<svg xmlns="http://www.w3.org/2000/svg" width="24" height="24">
  <path d="M14.134 3.712c.177.262.271.57.271.886v14.804c0 .883-.724 1.598-1.618 1.598a1.63 1.63 0 0 1-.897-.268l-5.131-3.38-2.602.001C2.966 17.353 2 16.4 2 15.223V8.83c0-1.177.966-2.131 2.157-2.131H6.68l5.21-3.43a1.63 1.63 0 0 1 2.244.443Zm6.099.787.103.218A17.858 17.858 0 0 1 22 12.267a17.86 17.86 0 0 1-1.768 7.766.2.2 0 0 1-.267.094l-.293-.142-.492-.236-.31-.149a.2.2 0 0 1-.093-.266 16.284 16.284 0 0 0 1.605-7.067 16.284 16.284 0 0 0-1.605-7.068.2.2 0 0 1 .094-.267l.228-.11.704-.338.163-.078a.2.2 0 0 1 .267.093Zm-7.756.303L7.22 8.264a.2.2 0 0 1-.11.033H4.157a.537.537 0 0 0-.535.47l-.004.063v6.392c0 .274.208.499.476.53l.063.003H7.19a.2.2 0 0 1 .11.033l5.178 3.41a.2.2 0 0 0 .31-.167V4.969a.2.2 0 0 0-.31-.167ZM17.322 5.9a14.707 14.707 0 0 1 1.442 6.367 14.709 14.709 0 0 1-1.442 6.366.2.2 0 0 1-.267.095l-.22-.106-.58-.278-.295-.142a.2.2 0 0 1-.094-.267 13.133 13.133 0 0 0 1.28-5.668 13.133 13.133 0 0 0-1.28-5.668.2.2 0 0 1 .094-.266l.21-.101.715-.344.17-.082a.2.2 0 0 1 .267.094Z"/>
</svg>
