<svg xmlns="http://www.w3.org/2000/svg" width="24" height="24">
  <path d="M2.47 3.53h1.617a.2.2 0 0 1 .144.06l12.686 13.026 1.194 1.224v.001l1.17 1.203.001-.002.757.777-.006-.003.821.845a.2.2 0 0 1-.143.339h-1.623a.2.2 0 0 1-.143-.06l-3.555-3.652a.2.2 0 0 0-.343.14v1.828c0 .874-.69 1.584-1.543 1.584a1.51 1.51 0 0 1-.855-.267L7.807 17.26a.2.2 0 0 0-.113-.035H5.276c-1.136 0-2.057-.945-2.057-2.112V8.778c0-1.092.807-1.99 1.841-2.1l-2.734-2.81a.2.2 0 0 1 .144-.339Zm4.036 4.72h-1.23a.52.52 0 0 0-.51.466l-.004.062v6.335c0 .271.198.494.454.525l.06.003h2.886a.2.2 0 0 1 .112.035l4.917 3.365a.2.2 0 0 0 .313-.165v-3.444a.2.2 0 0 0-.057-.14L6.65 8.31a.2.2 0 0 0-.144-.06Zm14.1-3.755a18.292 18.292 0 0 1 1.682 7.69 18.363 18.363 0 0 1-1.07 6.193.2.2 0 0 1-.332.072l-.157-.162-.466-.479-.275-.28a.2.2 0 0 1-.047-.2 16.781 16.781 0 0 0 .805-5.144 16.68 16.68 0 0 0-1.532-7.008.2.2 0 0 1 .092-.263 738.907 738.907 0 0 1 .719-.359l.31-.155a.2.2 0 0 1 .272.095Zm-2.775 1.387a15.065 15.065 0 0 1 1.371 6.302 15.209 15.209 0 0 1-.442 3.645.2.2 0 0 1-.337.091l-.083-.085-.703-.722-.17-.174a.2.2 0 0 1-.053-.177 13.646 13.646 0 0 0 .246-2.579 13.45 13.45 0 0 0-1.222-5.62.2.2 0 0 1 .093-.262l.183-.091.596-.299.25-.125a.2.2 0 0 1 .269.09l.002.006Zm-3.043-2.177c.169.26.26.566.26.88l-.001 7.378a.2.2 0 0 1-.344.14l-1.142-1.174a.2.2 0 0 1-.057-.14V4.963a.2.2 0 0 0-.313-.165L9.968 7.004a.2.2 0 0 1-.256-.026l-.83-.851a.2.2 0 0 1 .031-.305l3.736-2.556a1.518 1.518 0 0 1 2.139.44Z"/>
</svg>
