<svg xmlns="http://www.w3.org/2000/svg" width="24" height="24">
  <path d="M12.923 2.224c.411.212.744.558.947.986l1.96 4.132 4.384.663c1.14.172 1.93 1.273 1.764 2.458-.066.473-.28.909-.608 1.242l-3.172 3.217.749 4.541c.194 1.181-.568 2.303-1.703 2.505a2.013 2.013 0 0 1-1.323-.218L12 19.606 8.079 21.75c-1.02.558-2.28.15-2.816-.91a2.246 2.246 0 0 1-.21-1.377l.749-4.541-3.172-3.217a2.232 2.232 0 0 1-.038-3.068c.32-.341.74-.564 1.194-.632l4.383-.663 1.96-4.132c.51-1.075 1.761-1.516 2.794-.986Zm-.69 1.371a.513.513 0 0 0-.674.193l-.03.056-2.342 4.952-5.237.794a.518.518 0 0 0-.3.16.566.566 0 0 0-.036.723l.045.051 3.79 3.855-.895 5.442a.569.569 0 0 0 .052.347.516.516 0 0 0 .654.257l.056-.027L12 17.83l4.684 2.57c.102.056.22.075.333.054a.543.543 0 0 0 .436-.569l-.007-.063-.894-5.443 3.79-3.854a.557.557 0 0 0 .152-.313.548.548 0 0 0-.384-.609l-.06-.012-5.237-.794-2.342-4.952a.541.541 0 0 0-.179-.213l-.06-.036Z"/>
</svg>
