<svg xmlns="http://www.w3.org/2000/svg" width="24" height="24">
  <path d="M12.923 2.224c.411.212.744.558.947.986l1.96 4.132 4.384.663c1.14.172 1.93 1.273 1.764 2.458-.066.473-.28.909-.608 1.242l-3.172 3.217.749 4.541c.194 1.181-.568 2.303-1.703 2.505a2.013 2.013 0 0 1-1.323-.218L12 19.606 8.079 21.75c-1.02.558-2.28.15-2.816-.91a2.246 2.246 0 0 1-.21-1.377l.749-4.541-3.172-3.217a2.232 2.232 0 0 1-.038-3.068c.32-.341.74-.564 1.194-.632l4.383-.663 1.96-4.132c.51-1.075 1.761-1.516 2.794-.986Z"/>
</svg>
