<svg xmlns="http://www.w3.org/2000/svg" width="24" height="24">
  <path d="M14.25 18.667v1.583h3.583c.092 0 .167.075.167.167v.916a.167.167 0 0 1-.167.167h-4.666a.167.167 0 0 1-.167-.167v-2.666c0-.092.075-.167.167-.167h.916c.092 0 .167.075.167.167Zm7.069.119c.1 0 .181.081.181.18v2.353c0 .1-.081.181-.181.181h-.995a.18.18 0 0 1-.181-.181v-2.352c0-.1.081-.181.18-.181h.996ZM18.3 17.5c.11 0 .2.09.2.2v1.1a.2.2 0 0 1-.16.196L18.3 19h-1.1a.2.2 0 0 1-.2-.2v-1.1c0-.11.09-.2.2-.2h1.1Zm.033-4.5c.092 0 .167.08.167.178v.978a.172.172 0 0 1-.167.177H14.25v1.334L13.167 17c-.092 0-.167-.08-.167-.178v-3.644c0-.098.075-.178.167-.178h5.166Zm2.996 2.5c.094 0 .171.09.171.2v1.1c0 .097-.059.177-.137.196L21.33 17h-2.66c-.082 0-.151-.069-.168-.16l-.003-.04v-1.1c0-.11.077-.2.171-.2h2.658Zm-4.529 0c.11 0 .2.09.2.2v1.1a.2.2 0 0 1-.2.2h-3.6a.2.2 0 0 1-.2-.2v-1.1c0-.11.09-.2.2-.2h3.6Zm4.5-2.5c.11 0 .2.09.2.2v1.1a.2.2 0 0 1-.16.196l-.04.004h-1.1a.2.2 0 0 1-.196-.16L20 14.3v-1.1c0-.11.09-.2.2-.2h1.1Zm-2.982 0c.1 0 .182.09.182.2v1.1c0 .11-.081.2-.182.2h-4.636c-.1 0-.182-.09-.182-.2v-1.1c0-.11.082-.2.182-.2h4.636ZM11 4.29v4.92A1.79 1.79 0 0 1 9.21 11H4.29A1.79 1.79 0 0 1 2.5 9.21V4.29c0-.989.801-1.79 1.79-1.79h4.92c.989 0 1.79.801 1.79 1.79Zm10.5 0v4.92A1.79 1.79 0 0 1 19.71 11h-4.92A1.79 1.79 0 0 1 13 9.21V4.29c0-.989.801-1.79 1.79-1.79h4.92c.989 0 1.79.801 1.79 1.79ZM9.077 4H4.423a.423.423 0 0 0-.42.374L4 4.424v4.653c0 .214.16.395.374.42l.05.003h4.653c.214 0 .395-.16.42-.374l.003-.05V4.424a.423.423 0 0 0-.374-.42L9.076 4Zm10.5 0h-4.654a.423.423 0 0 0-.42.374l-.003.05v4.653c0 .214.16.395.373.42l.05.003h4.654c.214 0 .395-.16.42-.374l.003-.05V4.424a.423.423 0 0 0-.373-.42L19.576 4Zm-12.1 1.667c.249 0 .452.202.452.452v1.357c0 .25-.203.453-.453.453H6.12a.452.452 0 0 1-.452-.453V6.12c0-.25.202-.452.452-.452h1.357ZM11 14.79v4.92a1.79 1.79 0 0 1-1.79 1.79H4.29a1.79 1.79 0 0 1-1.79-1.79v-4.92c0-.989.801-1.79 1.79-1.79h4.92c.989 0 1.79.801 1.79 1.79Zm-1.923-.29H4.423a.423.423 0 0 0-.42.374l-.003.05v4.653c0 .214.16.395.374.42l.05.003h4.653c.214 0 .395-.16.42-.374l.003-.05v-4.653a.423.423 0 0 0-.374-.42l-.05-.003Zm-1.6 1.667c.249 0 .452.202.452.452v1.357c0 .25-.203.453-.453.453H6.12a.452.452 0 0 1-.452-.453V16.62c0-.25.202-.452.452-.452h1.357Zm10.5-10.5c.249 0 .452.202.452.452v1.357c0 .25-.203.453-.453.453H16.62a.452.452 0 0 1-.452-.453V6.12c0-.25.202-.452.452-.452h1.357Z"/>
</svg>
