<svg xmlns="http://www.w3.org/2000/svg" width="24" height="24">
  <path d="M21.5 19.99a1.996 1.996 0 0 1-2.68 1.89l-6.756-2.272a.2.2 0 0 0-.128 0L5.18 21.88a1.997 1.997 0 0 1-2.56-1.208 2.019 2.019 0 0 1-.119-.682V4.515a3.007 3.007 0 0 1 3-3.015h13c1.657 0 3 1.35 3 3.015V19.99ZM20 7.53H4v12.46a.5.5 0 0 0 .614.49l.056-.018 7.266-2.457a.2.2 0 0 1 .128 0l7.266 2.457a.501.501 0 0 0 .666-.414L20 19.99V7.53Zm-1.5-4.523h-13c-.799 0-1.452.628-1.497 1.42L4 4.514v1.507h16V4.515c0-.803-.625-1.46-1.412-1.505l-.088-.003Z"/>
</svg>
