<svg xmlns="http://www.w3.org/2000/svg" width="24" height="24">
  <path d="M10.654 3.5c2.28 0 4.128 1.824 4.128 4.073v2.114a4.045 4.045 0 0 1-1.177 2.847l-.926.935a.176.176 0 0 0-.05.124v.146c0 .063.036.12.093.15l5.981 2.896a1.946 1.946 0 0 1 1.105 1.748v.277c0 .933-.767 1.69-1.714 1.69H3.214a1.707 1.707 0 0 1-1.71-1.589L1.5 18.81v-.276c0-.694.374-1.335.997-1.692l.107-.056 5.981-2.897c.052-.025.088-.075.091-.105l.003-.044v-.146a.207.207 0 0 0-.018-.086l-.033-.038-.926-.934A4.054 4.054 0 0 1 6.53 9.862l-.004-.175V7.573c0-2.196 1.764-3.995 3.992-4.07l.136-.003Zm3.769.531c1.988 0 3.617 1.559 3.678 3.52l.002.11v1.782c0 .908-.345 1.783-.966 2.452l-.095.099-.798.796a.089.089 0 0 0-.023.04l-.003.023v.123c0 .02.009.038.024.052l.016.01 5.232 2.511a1.77 1.77 0 0 1 1.008 1.5l.002.093v.228c0 .816-.646 1.489-1.471 1.534l-.085.002h-.06l.001-.096v-.277l-.003-.127a3.009 3.009 0 0 0-1.704-2.575l-4.955-2.4.153-.154a5.1 5.1 0 0 0 1.483-3.59V7.573c0-1.32-.505-2.525-1.335-3.435l-.101-.107Z"/>
</svg>
