<svg xmlns="http://www.w3.org/2000/svg" width="24" height="24">
  <path d="M10.756 3.5c2.348 0 4.251 1.867 4.251 4.17v1.954c0 1.16-.478 2.271-1.325 3.082l-.877.84a.076.076 0 0 0-.023.055v.09l5.603 2.81a2.22 2.22 0 0 1 1.302 1.909l.002.102v.163c0 1.008-.833 1.825-1.861 1.825H3.362c-.981 0-1.794-.746-1.858-1.706L1.5 18.74l-.001-.091v-.137c0-.813.454-1.561 1.181-1.95l.044-.022.098-.048 5.585-2.8v-.091a.076.076 0 0 0-.008-.035l-.006-.008-.015-.017-.872-.835a4.282 4.282 0 0 1-1.313-2.792l-.009-.153-.003-.151V7.669c0-2.25 1.823-4.095 4.138-4.168l.125-.001h.31Zm-.311 1.379-.104.001c-1.535.05-2.753 1.283-2.753 2.79v1.94l.002.126c.03.75.351 1.46.899 1.984l.902.865.077.082c.223.262.345.592.345.934v.137l-.006.097a1.361 1.361 0 0 1-.792 1.1L3.42 17.741l-.065.032a.84.84 0 0 0-.448.74v.192a.452.452 0 0 0 .455.417h14.466c.252 0 .456-.2.456-.447v-.162a.84.84 0 0 0-.495-.763l-5.614-2.815a1.357 1.357 0 0 1-.798-1.23V13.6c0-.392.16-.767.447-1.041l.877-.84a2.902 2.902 0 0 0 .901-2.096V7.669c0-1.54-1.274-2.79-2.845-2.79h-.311Zm8.465 3.238.002.112v1.474c0 .9-.36 1.764-1.001 2.407l-.099.095-.593.55 4.062 2.035a2.04 2.04 0 0 1 1.21 1.657l.007.098.002.1a1.57 1.57 0 0 1-1.422 1.55c-.122-.627-.261-1.083-.416-1.37h.249c.1 0 .183-.08.183-.179a.656.656 0 0 0-.337-.572l-.058-.029-1.382-.616a3.692 3.692 0 0 0-.336-.176l-2.86-1.548a1.184 1.184 0 0 1-.372-.861c0-.364.14-.713.39-.98l.071-.07.637-.59c.392-.364.626-.86.656-1.387l.003-.114V8.228c0-.797-.49-1.516-1.24-1.822-.08-.336-.287-.845-.618-1.525 1.782.08 3.202 1.488 3.262 3.236Z"/>
</svg>
