<svg xmlns="http://www.w3.org/2000/svg" width="24" height="24">
  <path d="M19.275 3C20.78 3 22 4.231 22 5.75v12c0 1.519-1.22 2.75-2.725 2.75H8.653a3.629 3.629 0 0 1-3.177-1.886l-3.019-5.083a3.696 3.696 0 0 1 0-3.562l3.02-5.083A3.629 3.629 0 0 1 8.652 3h10.622Zm0 1.375H8.653c-.787 0-1.517.41-1.931 1.085l-.055.094-3.018 5.083a2.31 2.31 0 0 0-.055 2.12l.055.106 3.018 5.084a2.269 2.269 0 0 0 1.879 1.175l.107.003h10.622c.721 0 1.318-.567 1.36-1.294l.002-.081v-12a1.37 1.37 0 0 0-1.282-1.373l-.08-.002Zm-8.1 4.125a.2.2 0 0 1 .14.058l2.064 2.046 2.063-2.046a.2.2 0 0 1 .14-.058h1.554a.2.2 0 0 1 .14.342l-2.836 2.811 2.972 2.945a.2.2 0 0 1-.14.342h-1.554a.2.2 0 0 1-.14-.057l-2.199-2.18-2.199 2.18a.2.2 0 0 1-.14.058H9.485a.2.2 0 0 1-.14-.343l2.972-2.945-2.837-2.81a.2.2 0 0 1 .141-.343h1.553Z"/>
</svg>
