<svg xmlns="http://www.w3.org/2000/svg" width="24" height="24">
  <path d="M15.672 1.5a2 2 0 0 1 1.414.586l3.828 3.828a2 2 0 0 1 .586 1.414V19.5a3 3 0 0 1-3 3h-13a3 3 0 0 1-3-3v-15a3 3 0 0 1 3-3h10.172ZM15 3H5.5a1.5 1.5 0 0 0-1.497 1.412L4 4.5v15a1.5 1.5 0 0 0 1.412 1.497L5.5 21h13a1.5 1.5 0 0 0 1.497-1.412L20 19.5v-11h-3.5A1.5 1.5 0 0 1 15 7V3Zm3.5 9.7v1.1a.2.2 0 0 1-.2.2H5.7a.2.2 0 0 1-.2-.2v-1.1c0-.11.09-.2.2-.2h12.6c.11 0 .2.09.2.2Zm-6.5-3v1.1a.2.2 0 0 1-.2.2H5.7a.2.2 0 0 1-.2-.2V9.7c0-.11.09-.2.2-.2h6.1c.11 0 .2.09.2.2Zm4.5-5.596v2.694c0 .11.09.2.2.2h.002l2.674-.02a.2.2 0 0 0 .14-.341L16.84 3.962a.2.2 0 0 0-.341.142Z"/>
</svg>
