<svg xmlns="http://www.w3.org/2000/svg" width="24" height="24">
  <path d="M19.71 12.5c.989 0 1.79.801 1.79 1.79v3.92A1.79 1.79 0 0 1 19.71 20H18v1.3a.2.2 0 0 1-.2.2h-1.1a.2.2 0 0 1-.2-.2V20h-9v1.3a.2.2 0 0 1-.2.2H6.2a.2.2 0 0 1-.2-.2V20H4.29a1.79 1.79 0 0 1-1.79-1.79v-3.92c0-.989.801-1.79 1.79-1.79h15.42Zm-.133 1.5H4.423a.423.423 0 0 0-.42.374l-.003.05v3.653c0 .214.16.395.374.42l.05.003h15.153c.214 0 .395-.16.42-.374l.003-.05v-3.653a.423.423 0 0 0-.373-.42l-.05-.003ZM7 15.25a1 1 0 1 1 0 2 1 1 0 0 1 0-2Zm10.5 0a1 1 0 1 1 0 2 1 1 0 0 1 0-2ZM14.3 2.5c.11 0 .2.09.2.2v8.1a.2.2 0 0 1-.2.2h-1.1a.2.2 0 0 1-.2-.2V2.7c0-.11.09-.2.2-.2h1.1ZM17.55 6c.11 0 .2.09.2.2v4.6a.2.2 0 0 1-.2.2h-1.1a.2.2 0 0 1-.2-.2V6.2c0-.11.09-.2.2-.2h1.1Zm3.25 3.5c.11 0 .2.09.2.2v1.1a.2.2 0 0 1-.2.2h-1.1a.2.2 0 0 1-.2-.2V9.7c0-.11.09-.2.2-.2h1.1Zm-11.59-7c.989 0 1.79.801 1.79 1.79v4.92A1.79 1.79 0 0 1 9.21 11H4.29A1.79 1.79 0 0 1 2.5 9.21V4.29c0-.989.801-1.79 1.79-1.79h4.92ZM9.078 4H4.423a.423.423 0 0 0-.42.374L4 4.424v4.653c0 .214.16.395.374.42l.05.003h4.653c.214 0 .395-.16.42-.374l.003-.05V4.424a.423.423 0 0 0-.374-.42L9.076 4Zm-1.6 1.667c.249 0 .452.202.452.452v1.357c0 .25-.203.453-.453.453H6.12a.452.452 0 0 1-.452-.453V6.12c0-.25.202-.452.452-.452h1.357ZM20.8 2.5c.11 0 .2.09.2.2v4.6a.2.2 0 0 1-.2.2h-1.1a.2.2 0 0 1-.2-.2V2.7c0-.11.09-.2.2-.2h1.1Zm-3.25 0c.11 0 .2.09.2.2v1.1a.2.2 0 0 1-.2.2h-1.1a.2.2 0 0 1-.2-.2V2.7c0-.11.09-.2.2-.2h1.1Z"/>
</svg>
