<svg xmlns="http://www.w3.org/2000/svg" width="24" height="24">
  <path d="M22 15.5V19a3 3 0 0 1-3 3h-3.5v-1.5H19a1.5 1.5 0 0 0 1.497-1.412L20.5 19v-3.5H22Zm-18.5 0V19a1.5 1.5 0 0 0 1.412 1.497L5 20.5h3.5V22H5a3 3 0 0 1-3-3v-3.5h1.5Zm14.006-8.752a.5.5 0 0 1-.003.392l-4.656 10.672a.314.314 0 0 1-.586-.028l-.842-2.648a2 2 0 0 1 .273-1.761l2.187-3.091-3.404 1.988a2 2 0 0 1-1.683.157l-2.587-.925a.313.313 0 0 1-.012-.582l10.659-4.443a.5.5 0 0 1 .654.269ZM19 2a3 3 0 0 1 3 3v3.5h-1.5V5a1.5 1.5 0 0 0-1.412-1.497L19 3.5h-3.5V2H19ZM8.5 2v1.5H5a1.5 1.5 0 0 0-1.497 1.412L3.5 5v3.5H2V5a3 3 0 0 1 3-3h3.5Z"/>
</svg>
