<svg xmlns="http://www.w3.org/2000/svg" width="24" height="24">
  <path d="M14.24 6.083v.958h4.723c.448 0 .881.166 1.216.466l.075.072 1.67 1.676c.317.318.506.742.532 1.192l.002.104v7.032a1.83 1.83 0 0 1-1.734 1.831l-.092.003h-.55a2.51 2.51 0 0 1-4.834 0h-5.21a2.51 2.51 0 0 1-4.833 0h-1.92a1.83 1.83 0 0 1-1.827-1.834v-11.5A1.83 1.83 0 0 1 3.284 4.25h9.13a1.83 1.83 0 0 1 1.827 1.833ZM6.48 18.73c0 .633.511 1.146 1.141 1.146s1.142-.513 1.142-1.146c0-.633-.511-1.146-1.142-1.146-.63 0-1.141.513-1.141 1.146Zm10.043 0c0 .633.512 1.146 1.142 1.146.63 0 1.141-.513 1.141-1.146 0-.633-.51-1.146-1.141-1.146-.63 0-1.142.513-1.142 1.146ZM3.284 5.625a.457.457 0 0 0-.453.405l-.003.053v11.5c0 .233.173.428.403.456l.053.003h1.921a2.51 2.51 0 0 1 4.833 0h2.833V6.083a.458.458 0 0 0-.351-.446l-.052-.01-.053-.002h-9.13Zm10.957 2.792v9.625h1.007a2.51 2.51 0 0 1 4.833 0h.551l.054-.004a.457.457 0 0 0 .4-.401l.003-.054v-7.032l-.004-.06a.46.46 0 0 0-.09-.218l-.04-.046-1.67-1.676-.045-.04a.456.456 0 0 0-.217-.09l-.06-.004H14.24Z"/>
</svg>
