<svg xmlns="http://www.w3.org/2000/svg" width="24" height="24">
  <path d="m18.84 2.338 1.1 1.089a.2.2 0 0 1 .06.142v2.828c0 .41-.333.743-.743.743h-2.864a.2.2 0 0 1-.141-.058l-1.096-1.086a.2.2 0 0 1 .14-.342h2.181a12.009 12.009 0 0 0-.58-.444A8.516 8.516 0 0 0 12 3.673c-4.694 0-8.5 3.77-8.5 8.42 0 4.651 3.806 8.421 8.5 8.421 4.469 0 8.132-3.416 8.474-7.756.009-.113.016-.27.021-.47a.2.2 0 0 1 .2-.195h1.101c.11 0 .2.09.2.2v.005c-.004.18-.01.32-.016.423C21.654 17.9 17.31 22 12 22c-5.523 0-10-4.435-10-9.907 0-5.47 4.477-9.906 10-9.906 2.21 0 4.251.71 5.906 1.911.136.1.334.255.595.467V2.48a.2.2 0 0 1 .34-.142Z"/>
</svg>
