<svg xmlns="http://www.w3.org/2000/svg" width="24" height="24">
  <path d="M12 2a6 6 0 0 1 6 6v3h.5a2 2 0 0 1 2 2v7a2 2 0 0 1-2 2h-13a2 2 0 0 1-2-2v-7a2 2 0 0 1 2-2h11V8a4.5 4.5 0 0 0-4.367-4.498L12 3.5a4.5 4.5 0 0 0-4.498 4.367L7.5 8v1.3a.2.2 0 0 1-.2.2H6.2a.2.2 0 0 1-.2-.2V8a6 6 0 0 1 6-6Zm6.5 10.5h-13a.5.5 0 0 0-.497.442L5 13v7a.5.5 0 0 0 .442.497l.058.003h13a.5.5 0 0 0 .497-.442L19 20v-7a.5.5 0 0 0-.442-.497L18.5 12.5ZM13 15.2v2.6a.2.2 0 0 1-.2.2h-1.1a.2.2 0 0 1-.2-.2v-2.6c0-.11.09-.2.2-.2h1.1c.11 0 .2.09.2.2Z"/>
</svg>
