<svg xmlns="http://www.w3.org/2000/svg" width="24" height="24">
  <path d="M4.25 16a2.25 2.25 0 1 1 0 4.5 2.25 2.25 0 0 1 0-4.5Zm0 1.5a.75.75 0 1 0 0 1.5.75.75 0 0 0 0-1.5Zm17.55 0c.11 0 .2.09.2.2v1.1a.2.2 0 0 1-.2.2H8.2a.2.2 0 0 1-.2-.2v-1.1c0-.11.09-.2.2-.2h13.6Zm-17.55-8a2.25 2.25 0 1 1 0 4.5 2.25 2.25 0 0 1 0-4.5Zm0 1.5a.75.75 0 1 0 0 1.5.75.75 0 0 0 0-1.5Zm17.55 0c.11 0 .2.09.2.2v1.1a.2.2 0 0 1-.2.2H8.2a.2.2 0 0 1-.2-.2v-1.1c0-.11.09-.2.2-.2h13.6ZM4.25 3a2.25 2.25 0 1 1 0 4.5 2.25 2.25 0 0 1 0-4.5Zm0 1.5a.75.75 0 1 0 0 1.5.75.75 0 0 0 0-1.5Zm17.55 0c.11 0 .2.09.2.2v1.1a.2.2 0 0 1-.2.2H8.2a.2.2 0 0 1-.2-.2V4.7c0-.11.09-.2.2-.2h13.6Z"/>
</svg>
