<svg xmlns="http://www.w3.org/2000/svg" width="24" height="24">
  <path d="M6.75 2.2v1.1a.2.2 0 0 1-.2.2H5a1.5 1.5 0 0 0-1.497 1.412L3.5 5v14a1.5 1.5 0 0 0 1.412 1.497L5 20.5h14a1.5 1.5 0 0 0 1.497-1.412L20.5 19V5a1.5 1.5 0 0 0-1.412-1.497L19 3.5h-1.05a.2.2 0 0 1-.2-.2V2.2c0-.11.09-.2.2-.2H19a3 3 0 0 1 3 3v14a3 3 0 0 1-3 3H5a3 3 0 0 1-3-3V5a3 3 0 0 1 3-3h1.55c.11 0 .2.09.2.2Zm5.493-.2a.782.782 0 0 1 .493.155l.06.05 4.139 3.783a.2.2 0 0 1 .065.147v1.902a.026.026 0 0 1-.007.019.01.01 0 0 1-.016 0L13 4.422v10.82a.2.2 0 0 1-.2.2h-1.1a.2.2 0 0 1-.2-.2V4.408L7.835 7.757a.2.2 0 0 1-.335-.148V6.12a.2.2 0 0 1 .065-.147l4.124-3.769A.782.782 0 0 1 12.243 2Z"/>
</svg>
