<svg xmlns="http://www.w3.org/2000/svg" width="24" height="24">
  <path d="M12.27 2a5 5 0 0 1 5 5v2a4.998 4.998 0 0 1-2.499 4.33v.17l.623.332a.2.2 0 0 1 .106.177v1.247a.2.2 0 0 1-.294.176l-1.832-.977a.2.2 0 0 1-.106-.177l.005-1.699a.2.2 0 0 1 .1-.172l.647-.374a3.497 3.497 0 0 0 1.748-2.898L15.77 9V7a3.5 3.5 0 0 0-6.997-.12L8.77 7v2c0 1.22.627 2.328 1.637 2.964l.114.069.649.375a.2.2 0 0 1 .1.173v1.699a.2.2 0 0 1-.106.177l-6.191 3.301a1.84 1.84 0 0 0-.963 1.826c.055.496.456.876.945.913l.078.003H15.3c.11 0 .2.09.2.2v1.1a.2.2 0 0 1-.2.2H5.034a2.53 2.53 0 0 1-2.513-2.25 3.34 3.34 0 0 1 1.747-3.315L9.771 13.5v-.169A4.998 4.998 0 0 1 7.27 9V7a5 5 0 0 1 5-5Zm7.23 13.7V18h2.3c.11 0 .2.09.2.2v1.1a.2.2 0 0 1-.2.2h-2.3v2.3a.2.2 0 0 1-.2.2h-1.1a.2.2 0 0 1-.2-.2v-2.3h-2.3a.2.2 0 0 1-.2-.2v-1.1c0-.11.09-.2.2-.2H18v-2.3c0-.11.09-.2.2-.2h1.1c.11 0 .2.09.2.2Z"/>
</svg>
