<svg xmlns="http://www.w3.org/2000/svg" width="24" height="24">
  <path d="M12 1c6.075 0 11 4.925 11 11s-4.925 11-11 11S1 18.075 1 12 5.925 1 12 1Zm.25 5a3.49 3.49 0 0 0-3.487 3.37l-.003.12v2.02c0 1.216.626 2.322 1.633 2.956l.113.068.648.375a.2.2 0 0 1 .1.173l.002 1.696a.2.2 0 0 1-.105.177L7.04 19.152l-.781.418c.336.242.593.418.77.527A9.456 9.456 0 0 0 12 21.5c1.927 0 3.72-.574 5.218-1.56.163-.108.4-.28.71-.517l-.736-.397-3.843-2.07a.2.2 0 0 1-.105-.177l.002-1.697a.2.2 0 0 1 .1-.173l.648-.375a3.487 3.487 0 0 0 1.743-2.889l.002-.134V9.49A3.49 3.49 0 0 0 12.25 6ZM12 2.5A9.5 9.5 0 0 0 2.5 12c0 2.2.748 4.224 2.002 5.835.104.132.26.315.466.55a.2.2 0 0 0 .244.043l.644-.344L9.756 16l-.001-.168A4.988 4.988 0 0 1 7.26 11.51V9.49a4.99 4.99 0 0 1 9.98 0v2.02a4.988 4.988 0 0 1-2.495 4.322V16l3.668 1.96.535.287a.2.2 0 0 0 .247-.048c.21-.249.366-.444.47-.585A9.457 9.457 0 0 0 21.5 12 9.5 9.5 0 0 0 12 2.5Z"/>
</svg>
