<svg xmlns="http://www.w3.org/2000/svg" width="24" height="24">
  <path d="m20.288 16.055 1.653 2.822a.2.2 0 0 1 0 .203l-1.653 2.82a.2.2 0 0 1-.173.099h-3.311a.2.2 0 0 1-.172-.099l-1.654-2.821a.2.2 0 0 1 0-.203l1.653-2.822a.2.2 0 0 1 .173-.099h3.311a.2.2 0 0 1 .173.1ZM11.884 2c2.794 0 5.058 2.232 5.058 4.985v1.993c0 1.845-1.017 3.456-2.528 4.318v.168l1.22.642a.2.2 0 0 1 .083.27l-.002.004-.537.96a.2.2 0 0 1-.267.08L13 14.417a.2.2 0 0 1-.107-.178l.005-1.691a.2.2 0 0 1 .1-.173l.655-.373a3.48 3.48 0 0 0 1.768-2.889l.003-.135V6.985c0-1.927-1.585-3.49-3.54-3.49-1.916 0-3.475 1.498-3.54 3.37l-.002.12v1.993c0 1.216.636 2.322 1.657 2.955l.115.069.657.374a.2.2 0 0 1 .1.174v1.69a.2.2 0 0 1-.107.178l-6.262 3.291a1.827 1.827 0 0 0-.974 1.821c.056.494.46.873.956.91l.079.003h9.285a.2.2 0 0 1 .174.102l.611 1.096a.2.2 0 0 1-.174.297H4.564c-1.304 0-2.4-.966-2.543-2.243a3.317 3.317 0 0 1 1.768-3.305l5.566-2.926v-.168c-1.512-.862-2.529-2.473-2.529-4.318V6.985C6.826 4.232 9.091 2 11.884 2Zm7.355 15.452H17.68a.2.2 0 0 0-.172.098l-.778 1.327a.2.2 0 0 0 0 .203l.777 1.326a.2.2 0 0 0 .173.099h1.559a.2.2 0 0 0 .172-.1l.778-1.326a.2.2 0 0 0 0-.202l-.777-1.326a.2.2 0 0 0-.173-.1Z"/>
</svg>
