<svg xmlns="http://www.w3.org/2000/svg" width="24" height="24">
  <path d="M12.25 2a4.99 4.99 0 0 1 4.99 4.99v2.02a4.988 4.988 0 0 1-2.495 4.322v.168l5.488 2.933a3.344 3.344 0 0 1 1.747 3.317A2.529 2.529 0 0 1 19.466 22H5.034a2.529 2.529 0 0 1-2.514-2.25 3.343 3.343 0 0 1 1.748-3.317L9.755 13.5v-.168A4.988 4.988 0 0 1 7.26 9.01V6.99A4.99 4.99 0 0 1 12.25 2Zm0 1.5a3.49 3.49 0 0 0-3.487 3.37l-.003.12v2.02c0 1.216.626 2.322 1.633 2.956l.113.068.648.375a.2.2 0 0 1 .1.173l.002 1.696a.2.2 0 0 1-.105.177l-6.176 3.3a1.843 1.843 0 0 0-.964 1.83c.055.495.455.875.945.912l.078.003h14.432a1.03 1.03 0 0 0 1.023-.915 1.843 1.843 0 0 0-.875-1.778l-.088-.051-6.177-3.3a.2.2 0 0 1-.105-.178l.002-1.696a.2.2 0 0 1 .1-.173l.648-.375a3.487 3.487 0 0 0 1.743-2.889l.002-.134V6.99A3.49 3.49 0 0 0 12.25 3.5Z"/>
</svg>
