<svg xmlns="http://www.w3.org/2000/svg" width="24" height="24">
  <path d="M15.708 3.5a2.755 2.755 0 0 1 2.734 2.462l2.392-.266a1.5 1.5 0 0 1 1.666 1.49v10.211a1.5 1.5 0 0 1-1.666 1.491l-2.402-.268A2.754 2.754 0 0 1 15.708 21H4.25a2.757 2.757 0 0 1-2.75-2.763V6.263A2.757 2.757 0 0 1 4.25 3.5h11.458ZM15.5 5.007h-11A1.5 1.5 0 0 0 3.003 6.42L3 6.507v11.57a1.5 1.5 0 0 0 1.412 1.497l.088.002h11a1.5 1.5 0 0 0 1.497-1.411l.003-.088V6.506a1.5 1.5 0 0 0-1.5-1.5Zm4.976 2.101-.059.006-1.968.33v9.696l1.968.33a.5.5 0 0 0 .58-.435l.003-.059V7.607a.5.5 0 0 0-.524-.5Zm-5.726-.594c.414 0 .75.338.75.754a.752.752 0 0 1-.75.754.752.752 0 0 1-.75-.754c0-.416.336-.754.75-.754Z"/>
</svg>
